<svg width="24" height="63" viewBox="0 0 24 63" fill="none" xmlns="http://www.w3.org/2000/svg">
<path d="M13.5 2C13.5 1.17157 12.8284 0.5 12 0.5C11.1716 0.5 10.5 1.17157 10.5 2L13.5 2ZM10.9393 62.0607C11.5251 62.6464 12.4749 62.6464 13.0607 62.0607L22.6066 52.5147C23.1924 51.9289 23.1924 50.9792 22.6066 50.3934C22.0208 49.8076 21.0711 49.8076 20.4853 50.3934L12 58.8787L3.51472 50.3934C2.92893 49.8076 1.97919 49.8076 1.3934 50.3934C0.807614 50.9792 0.807614 51.9289 1.3934 52.5147L10.9393 62.0607ZM10.5 2L10.5 61L13.5 61L13.5 2L10.5 2Z" fill="#AD3862"/>
</svg>
