<svg width="20" height="46" viewBox="0 0 20 46" fill="none" xmlns="http://www.w3.org/2000/svg">
<path d="M11.3 2C11.3 1.28203 10.718 0.7 10 0.7C9.28203 0.7 8.7 1.28203 8.7 2L11.3 2ZM9.08076 44.9192C9.58844 45.4269 10.4116 45.4269 10.9192 44.9192L19.1924 36.6461C19.7001 36.1384 19.7001 35.3153 19.1924 34.8076C18.6847 34.2999 17.8616 34.2999 17.3539 34.8076L10 42.1615L2.64609 34.8076C2.13841 34.2999 1.3153 34.2999 0.807614 34.8076C0.299932 35.3153 0.299932 36.1384 0.807614 36.6461L9.08076 44.9192ZM8.7 2L8.7 44L11.3 44L11.3 2L8.7 2Z" fill="#F5F488"/>
</svg>
