<svg width="36" height="36" viewBox="0 0 36 36" fill="none" xmlns="http://www.w3.org/2000/svg">
<path d="M18 0C13.226 0 8.64778 1.89641 5.27216 5.27216C1.89641 8.64765 0 13.2262 0 18C0 22.7738 1.89641 27.3522 5.27216 30.7278C8.64765 34.1036 13.2262 36 18 36C22.7738 36 27.3522 34.1036 30.7278 30.7278C34.1036 27.3523 36 22.7738 36 18C36 13.2262 34.1036 8.64778 30.7278 5.27216C27.3523 1.89641 22.7738 0 18 0ZM9.23792 13.021C9.45136 12.5064 9.81749 12.0695 10.2865 11.7689C10.7556 11.4683 11.3056 11.3186 11.8623 11.3397H17.9822H24.1021H24.1023C24.6528 11.3164 25.1979 11.4583 25.6675 11.7468C26.1371 12.0356 26.5098 12.4579 26.7373 12.9599C26.8302 13.0887 26.8548 13.2545 26.8034 13.4049C26.7519 13.5551 26.6306 13.6711 26.4782 13.7158L18.3602 17.9458C18.1516 18.0653 17.8954 18.0653 17.687 17.9458L9.46424 13.6799C9.3319 13.6405 9.22669 13.5395 9.18149 13.4087C9.13654 13.2781 9.15738 13.1337 9.23749 13.021H9.23792ZM26.9498 22.3411C26.8476 22.9939 26.5131 23.5881 26.0076 24.0139C25.5024 24.4398 24.8603 24.6691 24.1996 24.6596H19.1921H11.8552C11.2325 24.6731 10.6233 24.4773 10.1251 24.1033C9.6271 23.7292 9.26903 23.1986 9.10858 22.5966C9.04404 22.3621 9.01014 22.12 9.00788 21.8767V15.9979C9.00788 15.4904 9.32479 15.303 9.78181 15.5371C12.3379 16.8668 14.8915 18.1986 17.4427 19.5331C17.6142 19.6348 17.8101 19.6885 18.0097 19.6885C18.2091 19.6885 18.405 19.6348 18.5767 19.5331C21.116 18.2011 23.6588 16.881 26.2048 15.573V15.5732C26.2766 15.531 26.3542 15.4996 26.4351 15.4795C26.5749 15.4311 26.7296 15.4582 26.8446 15.5514C26.9594 15.6443 27.0184 15.7899 27.0003 15.9366V21.0234C27.0197 21.4634 27.0028 21.904 26.9499 22.341L26.9498 22.3411Z" fill="#212121"/>
</svg>
