<svg width="42" height="42" viewBox="0 0 42 42" fill="none" xmlns="http://www.w3.org/2000/svg">
<path d="M21 0C15.4304 0 10.0891 2.21248 6.15086 6.15086C2.21248 10.0889 0 15.4305 0 21C0 26.5695 2.21248 31.9109 6.15086 35.8491C10.0889 39.7875 15.4305 42 21 42C26.5695 42 31.9109 39.7875 35.8491 35.8491C39.7875 31.9111 42 26.5695 42 21C42 15.4305 39.7875 10.0891 35.8491 6.15086C31.9111 2.21248 26.5695 0 21 0ZM10.7776 15.1911C11.0266 14.5909 11.4537 14.0811 12.001 13.7304C12.5482 13.3797 13.1899 13.2051 13.8394 13.2297H20.9792H28.1191H28.1194C28.7616 13.2024 29.3976 13.368 29.9455 13.7046C30.4933 14.0415 30.9281 14.5342 31.1935 15.1199C31.3019 15.2702 31.3307 15.4636 31.2706 15.639C31.2105 15.8142 31.069 15.9496 30.8912 16.0017L21.4203 20.9368C21.1768 21.0762 20.878 21.0762 20.6348 20.9368L11.0416 15.9599C10.8872 15.9139 10.7645 15.7961 10.7117 15.6435C10.6593 15.4911 10.6836 15.3227 10.7771 15.1911H10.7776ZM31.4414 26.0646C31.3222 26.8263 30.932 27.5194 30.3422 28.0163C29.7528 28.5131 29.0036 28.7806 28.2329 28.7695H22.3908H13.8311C13.1045 28.7853 12.3938 28.5568 11.8126 28.1206C11.2316 27.6841 10.8139 27.065 10.6267 26.3627C10.5514 26.0891 10.5118 25.8067 10.5092 25.5228V18.6642C10.5092 18.0721 10.8789 17.8535 11.4121 18.1266C14.3942 19.6779 17.3734 21.2317 20.3498 22.7886C20.5499 22.9072 20.7784 22.9699 21.0113 22.9699C21.2439 22.9699 21.4724 22.9072 21.6728 22.7886C24.6353 21.2346 27.6019 19.6945 30.5723 18.1684V18.1687C30.6561 18.1195 30.7466 18.0829 30.8409 18.0595C31.0041 18.0029 31.1846 18.0346 31.3187 18.1433C31.4526 18.2517 31.5215 18.4216 31.5004 18.5927V24.5273C31.5229 25.0406 31.5033 25.5547 31.4415 26.0645L31.4414 26.0646Z" fill="#5B2C8E"/>
</svg>
