<svg width="43" height="42" viewBox="0 0 43 42" fill="none" xmlns="http://www.w3.org/2000/svg">
<path d="M21.3288 0C9.54998 0 0 9.54998 0 21.3288C0 31.3232 6.8821 39.6858 16.1601 42C16.0606 41.7121 15.9966 41.3779 15.9966 40.9638V37.3183C15.131 37.3183 13.6807 37.3183 13.3163 37.3183C11.857 37.3183 10.5595 36.6909 9.93034 35.5249C9.23182 34.2292 9.11096 32.2474 7.37977 31.0352C6.8661 30.6317 7.25713 30.1714 7.84901 30.2336C8.94211 30.5429 9.84858 31.2929 10.7017 32.4056C11.5513 33.52 11.9512 33.7724 13.5385 33.7724C14.3081 33.7724 15.4598 33.728 16.5441 33.5573C17.127 32.0768 18.1348 30.7135 19.3666 30.0701C12.2641 29.3396 8.87457 25.8061 8.87457 21.0089C8.87457 18.9435 9.75438 16.9457 11.2492 15.2625C10.7586 13.5918 10.1419 10.1845 11.4376 8.88701C14.6333 8.88701 16.5654 10.9595 17.0293 11.5193C18.6218 10.9737 20.3708 10.6644 22.2086 10.6644C24.05 10.6644 25.8061 10.9737 27.4022 11.5229C27.8608 10.9666 29.7946 8.88701 32.9975 8.88701C34.2985 10.1863 33.6747 13.6078 33.1788 15.275C34.6647 16.9546 35.5392 18.9471 35.5392 21.0089C35.5392 25.8025 32.155 29.3342 25.0631 30.0683C27.0147 31.0868 28.4384 33.9484 28.4384 36.1044V40.9638C28.4384 41.1486 28.3975 41.2819 28.3762 41.4401C36.6874 38.527 42.6576 30.6353 42.6576 21.3288C42.6576 9.54998 33.1077 0 21.3288 0Z" fill="#AD3862"/>
</svg>
