<svg width="37" height="36" viewBox="0 0 37 36" fill="none" xmlns="http://www.w3.org/2000/svg">
<path d="M18.2818 0C8.1857 0 0 8.1857 0 18.2818C0 26.8484 5.89894 34.0164 13.8515 36C13.7662 35.7532 13.7114 35.4668 13.7114 35.1118V31.9871C12.9694 31.9871 11.7263 31.9871 11.414 31.9871C10.1632 31.9871 9.05104 31.4493 8.51172 30.4499C7.91299 29.3393 7.8094 27.6406 6.32552 26.6016C5.88523 26.2558 6.2204 25.8612 6.72772 25.9145C7.66466 26.1796 8.44164 26.8225 9.17292 27.7762C9.90114 28.7314 10.2439 28.9478 11.6044 28.9478C12.2641 28.9478 13.2513 28.9097 14.1806 28.7634C14.6803 27.4944 15.5441 26.3259 16.5999 25.7744C10.5121 25.1482 7.60677 22.1195 7.60677 18.0076C7.60677 16.2373 8.3609 14.5249 9.64215 13.0822C9.22167 11.6501 8.69302 8.72958 9.80364 7.61744C12.5429 7.61744 14.1989 9.39382 14.5965 9.87372C15.9616 9.40601 17.4607 9.14092 19.036 9.14092C20.6143 9.14092 22.1195 9.40601 23.4876 9.87677C23.8807 9.39992 25.5382 7.61744 28.2835 7.61744C29.3987 8.7311 28.864 11.6638 28.4389 13.0928C29.7126 14.5325 30.4621 16.2404 30.4621 18.0076C30.4621 22.1165 27.5614 25.1436 21.4827 25.7728C23.1555 26.6458 24.3758 29.0986 24.3758 30.9466V35.1118C24.3758 35.2703 24.3408 35.3845 24.3225 35.5201C31.4463 33.0231 36.5637 26.2588 36.5637 18.2818C36.5637 8.1857 28.378 0 18.2818 0Z" fill="#212121"/>
</svg>
