<svg width="22" height="22" viewBox="0 0 26 22" fill="none" xmlns="http://www.w3.org/2000/svg">
<path fill-rule="evenodd" clip-rule="evenodd" d="M25.3016 10.0136C25.2445 9.47698 24.9793 8.99775 24.555 8.66439L14.2115 0.53937C13.2958 -0.17979 12.0171 -0.17979 11.1014 0.53937L0.757865 8.66439C0.33357 8.99775 0.0683575 9.47698 0.0113129 10.0136C-0.0455419 10.5503 0.113193 11.0746 0.458386 11.4902C1.13763 12.3076 2.38104 12.4297 3.23034 11.7627L3.72598 11.3733V19.7519C3.72598 20.9916 4.73438 22 5.97404 22H9.51691C9.80366 22 10.036 21.7676 10.036 21.4811V18.3078C10.036 16.8867 11.192 15.7307 12.6131 15.7307C14.0341 15.7307 15.1901 16.8867 15.1901 18.3078V21.4811C15.1901 21.7677 15.4226 22 15.7092 22H19.3389C20.5786 22 21.587 20.9916 21.587 19.7519V11.3733L22.0825 11.7627C22.9321 12.4299 24.1755 12.3076 24.8546 11.4902C25.1998 11.0746 25.3585 10.5503 25.3017 10.0136" fill="#212121"/>
</svg>
