<svg width="42" height="42" viewBox="0 0 42 42" fill="none" xmlns="http://www.w3.org/2000/svg">
<path d="M21 0C9.40275 0 0 9.40275 0 21C0 32.5972 9.40275 42 21 42C32.5972 42 42 32.5972 42 21C42 9.40275 32.5972 0 21 0ZM13.118 9.45525C14.5915 9.45525 15.5733 10.437 15.5733 11.746C15.5733 13.055 14.5915 14.0367 12.9552 14.0367C11.4817 14.0385 10.5 13.055 10.5 11.746C10.5 10.437 11.4818 9.45525 13.118 9.45525ZM15.75 29.75H10.5V15.75H15.75V29.75ZM33.25 29.75H28.308V22.099C28.308 19.9833 26.9903 19.495 26.4968 19.495C26.0033 19.495 24.3547 19.8205 24.3547 22.099C24.3547 22.4245 24.3547 29.75 24.3547 29.75H19.25V15.75H24.3565V17.703C25.0145 16.5638 26.3322 15.75 28.8032 15.75C31.2742 15.75 33.25 17.703 33.25 22.099V29.75Z" fill="#F5F488"/>
</svg>
