<svg width="36" height="36" viewBox="0 0 36 36" fill="none" xmlns="http://www.w3.org/2000/svg">
<path d="M18 0C8.0595 0 0 8.0595 0 18C0 27.9405 8.0595 36 18 36C27.9405 36 36 27.9405 36 18C36 8.0595 27.9405 0 18 0ZM11.244 8.1045C12.507 8.1045 13.3485 8.946 13.3485 10.068C13.3485 11.19 12.507 12.0315 11.1045 12.0315C9.8415 12.033 9 11.19 9 10.068C9 8.946 9.8415 8.1045 11.244 8.1045ZM13.5 25.5H9V13.5H13.5V25.5ZM28.5 25.5H24.264V18.942C24.264 17.1285 23.1345 16.71 22.7115 16.71C22.2885 16.71 20.8755 16.989 20.8755 18.942C20.8755 19.221 20.8755 25.5 20.8755 25.5H16.5V13.5H20.877V15.174C21.441 14.1975 22.5705 13.5 24.6885 13.5C26.8065 13.5 28.5 15.174 28.5 18.942V25.5Z" fill="#212121"/>
</svg>
