<svg width="28" height="28" viewBox="0 0 28 28" fill="none" xmlns="http://www.w3.org/2000/svg">
<path d="M13.9998 5.31747C9.22035 5.31747 5.33246 9.20537 5.33246 13.9848C5.33246 18.7642 9.22035 22.6521 13.9998 22.6521C18.7792 22.6521 22.6671 18.7642 22.6671 13.9848C22.6671 9.20463 18.7792 5.31747 13.9998 5.31747V5.31747Z" fill="#212121"/>
<path d="M15.7401 24.338H12.2597C12.0709 24.338 11.8972 24.4423 11.8085 24.6082C11.7192 24.7741 11.7285 24.9764 11.8329 25.1337L13.5731 27.7554C13.6681 27.8984 13.8283 27.9849 13.9999 27.9849C14.1715 27.9849 14.3316 27.8991 14.4267 27.7554L16.1669 25.1337C16.2713 24.9764 16.2813 24.7741 16.1912 24.6082C16.1025 24.4416 15.9288 24.338 15.7401 24.338H15.7401Z" fill="#212121"/>
<path d="M12.2593 3.63194H15.7398C15.9285 3.63194 16.1023 3.52756 16.1909 3.36168C16.2803 3.19581 16.271 2.99348 16.1666 2.83619L14.4264 0.214487C14.2362 -0.0714955 13.7629 -0.0714955 13.5727 0.214487L11.8325 2.83619C11.7282 2.99348 11.7181 3.1958 11.8082 3.36168C11.8969 3.52827 12.0706 3.63194 12.2594 3.63194H12.2593Z" fill="#212121"/>
<path d="M3.37669 11.7932C3.21083 11.7031 3.00849 11.7139 2.8512 11.8175L0.229501 13.557C0.0865096 13.6521 0 13.8122 0 13.9845C0 14.1554 0.0857958 14.317 0.229501 14.4121L2.8512 16.153C2.93699 16.2088 3.03565 16.2381 3.13433 16.2381C3.21726 16.2381 3.3002 16.2181 3.37669 16.1773C3.54328 16.0879 3.64695 15.9149 3.64695 15.7262V12.2457C3.64695 12.0555 3.54329 11.8818 3.37669 11.7931V11.7932Z" fill="#212121"/>
<path d="M25.148 11.8169C24.9908 11.7139 24.7877 11.7025 24.6226 11.7925C24.456 11.8819 24.3523 12.0549 24.3523 12.2437V15.7241C24.3523 15.9136 24.456 16.0866 24.6226 16.1753C24.6983 16.216 24.782 16.236 24.8649 16.236C24.9643 16.236 25.063 16.2067 25.148 16.151L27.7705 14.4101C27.9135 14.315 28 14.1548 28 13.9825C28 13.8102 27.9142 13.6501 27.7705 13.555L25.148 11.8169Z" fill="#212121"/>
<path d="M7.91393 22.5369L5.45311 20.0761C5.31941 19.9424 5.12351 19.8938 4.94262 19.9481C4.76174 20.0024 4.62589 20.1519 4.58872 20.337L3.96529 23.4214C3.93097 23.5901 3.98388 23.7639 4.10542 23.8854C4.22696 24.007 4.4007 24.0592 4.56943 24.0256L7.65383 23.4021C7.839 23.365 7.98842 23.2284 8.04276 23.0482C8.09639 22.8673 8.04777 22.6707 7.91408 22.537L7.91393 22.5369Z" fill="#212121"/>
<path d="M20.0946 5.43664L22.5554 7.89746C22.6891 8.03115 22.885 8.07977 23.0659 8.02543C23.2467 7.9711 23.3826 7.82167 23.4198 7.6365L24.0432 4.5521C24.1111 4.21536 23.7765 3.88075 23.4398 3.94867L20.3554 4.5721C20.1702 4.60928 20.0208 4.74584 19.9664 4.92601C19.9121 5.10689 19.9607 5.30351 20.0944 5.43649L20.0946 5.43664Z" fill="#212121"/>
<path d="M8.04199 4.92588C7.98836 4.745 7.83751 4.60915 7.65376 4.57127L4.56936 3.9471C4.40063 3.91278 4.2269 3.96569 4.10535 4.08723C3.98452 4.20806 3.9309 4.38322 3.96522 4.55124L4.58866 7.63619C4.60939 7.73629 4.65872 7.82638 4.72878 7.89644C4.78741 7.95506 4.86033 8.00011 4.94327 8.02442C5.12416 8.07947 5.32006 8.03014 5.45376 7.89644L7.91458 5.43562C8.04756 5.30264 8.09618 5.10674 8.04184 4.92585L8.04199 4.92588Z" fill="#212121"/>
<path d="M23.4205 20.3368C23.3826 20.1531 23.246 20.0015 23.0658 19.9486C22.885 19.8936 22.6891 19.9429 22.5554 20.0766L20.0945 22.5374C19.9608 22.6711 19.9115 22.867 19.9666 23.0479C19.9916 23.1308 20.0359 23.2038 20.0945 23.2624C20.1646 23.3324 20.2547 23.3818 20.3548 23.4025L23.4397 24.0259C23.6085 24.0603 23.7822 24.0074 23.9037 23.8858C24.0253 23.7643 24.0782 23.5898 24.0439 23.4218L23.4205 20.3368Z" fill="#212121"/>
</svg>
