<svg width="23" height="22" viewBox="0 0 23 22" fill="none" xmlns="http://www.w3.org/2000/svg">
<path d="M11.0059 4.1803C7.24857 4.1803 4.19214 7.23673 4.19214 10.994C4.19214 14.7513 7.24857 17.8078 11.0059 17.8078C14.7632 17.8078 17.8196 14.7513 17.8196 10.994C17.8196 7.23615 14.7632 4.1803 11.0059 4.1803V4.1803Z" fill="#212121"/>
<path d="M12.3741 19.1331H9.638C9.48962 19.1331 9.35303 19.2151 9.28334 19.3455C9.21309 19.4759 9.22039 19.635 9.30245 19.7586L10.6705 21.8197C10.7453 21.9321 10.8711 22.0001 11.006 22.0001C11.1409 22.0001 11.2668 21.9326 11.3416 21.8197L12.7096 19.7586C12.7917 19.635 12.7995 19.4759 12.7287 19.3455C12.659 19.2146 12.5225 19.1331 12.3741 19.1331H12.3741Z" fill="#212121"/>
<path d="M9.6377 2.85521H12.3738C12.5222 2.85521 12.6588 2.77316 12.7285 2.64275C12.7987 2.51236 12.7914 2.3533 12.7094 2.22964L11.3413 0.168617C11.1918 -0.0562055 10.8197 -0.0562055 10.6702 0.168617L9.30219 2.22964C9.22013 2.35329 9.21226 2.51235 9.28308 2.64275C9.35278 2.77371 9.48936 2.85521 9.63774 2.85521H9.6377Z" fill="#212121"/>
<path d="M2.65456 9.27111C2.52416 9.20029 2.3651 9.20873 2.24144 9.29022L0.18042 10.6577C0.0680087 10.7325 0 10.8584 0 10.9938C0 11.1281 0.0674475 11.2552 0.18042 11.3299L2.24144 12.6985C2.30889 12.7424 2.38645 12.7654 2.46402 12.7654C2.52922 12.7654 2.59442 12.7497 2.65456 12.7176C2.78552 12.6474 2.86702 12.5113 2.86702 12.363V9.62683C2.86702 9.47732 2.78552 9.34075 2.65456 9.27105V9.27111Z" fill="#212121"/>
<path d="M19.7701 9.28973C19.6465 9.20879 19.4868 9.1998 19.357 9.27062C19.226 9.34088 19.1445 9.4769 19.1445 9.62527V12.3614C19.1445 12.5104 19.226 12.6464 19.357 12.7161C19.4166 12.7481 19.4823 12.7638 19.5475 12.7638C19.6257 12.7638 19.7032 12.7408 19.7701 12.697L21.8317 11.3283C21.9441 11.2536 22.0121 11.1277 22.0121 10.9922C22.0121 10.8568 21.9447 10.7309 21.8317 10.6561L19.7701 9.28973Z" fill="#212121"/>
<path d="M6.22163 17.7171L4.28709 15.7826C4.18198 15.6775 4.02797 15.6393 3.88577 15.682C3.74357 15.7247 3.63678 15.8422 3.60755 15.9877L3.11745 18.4125C3.09047 18.5451 3.13206 18.6817 3.22761 18.7773C3.32316 18.8728 3.45974 18.9139 3.59239 18.8874L6.01716 18.3973C6.16273 18.3681 6.2802 18.2608 6.32292 18.1191C6.36507 17.9769 6.32686 17.8224 6.22175 17.7172L6.22163 17.7171Z" fill="#212121"/>
<path d="M15.7971 4.274L17.7316 6.20855C17.8368 6.31365 17.9908 6.35187 18.133 6.30916C18.2752 6.26644 18.382 6.14897 18.4112 6.0034L18.9013 3.57863C18.9547 3.31391 18.6916 3.05085 18.4269 3.10425L16.0021 3.59436C15.8566 3.62358 15.7391 3.73094 15.6964 3.87257C15.6537 4.01477 15.6919 4.16934 15.797 4.27389L15.7971 4.274Z" fill="#212121"/>
<path d="M6.32231 3.87238C6.28015 3.73018 6.16156 3.62339 6.01711 3.59361L3.59234 3.10292C3.45969 3.07595 3.32311 3.11754 3.22756 3.21309C3.13257 3.30808 3.09042 3.44578 3.1174 3.57787L3.6075 6.00307C3.6238 6.08176 3.66258 6.15258 3.71766 6.20766C3.76375 6.25375 3.82108 6.28916 3.88628 6.30827C4.02848 6.35154 4.18249 6.31276 4.2876 6.20766L6.22215 4.27311C6.32669 4.16857 6.36491 4.01456 6.32219 3.87236L6.32231 3.87238Z" fill="#212121"/>
<path d="M18.4119 15.9876C18.3821 15.8431 18.2747 15.724 18.1331 15.6824C17.9909 15.6391 17.8369 15.6779 17.7318 15.783L15.7972 17.7176C15.6921 17.8227 15.6533 17.9767 15.6966 18.1189C15.7163 18.1841 15.7511 18.2414 15.7972 18.2875C15.8523 18.3426 15.9231 18.3814 16.0018 18.3977L18.427 18.8878C18.5597 18.9147 18.6962 18.8731 18.7918 18.7776C18.8873 18.682 18.9289 18.5449 18.902 18.4128L18.4119 15.9876Z" fill="#212121"/>
</svg>
