<svg width="28" height="28" viewBox="0 0 28 28" fill="none" xmlns="http://www.w3.org/2000/svg">
<path d="M13.9997 5.31836C9.22029 5.31836 5.3324 9.20625 5.3324 13.9857C5.3324 18.7651 9.22029 22.653 13.9997 22.653C18.7791 22.653 22.667 18.7651 22.667 13.9857C22.667 9.20552 18.7791 5.31836 13.9997 5.31836V5.31836Z" fill="#212121"/>
<path d="M15.7402 24.3379H12.2597C12.071 24.3379 11.8972 24.4423 11.8086 24.6081C11.7192 24.774 11.7285 24.9763 11.8329 25.1336L13.5731 27.7553C13.6682 27.8983 13.8284 27.9848 13.9999 27.9848C14.1715 27.9848 14.3317 27.899 14.4268 27.7553L16.167 25.1336C16.2713 24.9764 16.2814 24.774 16.1913 24.6081C16.1026 24.4416 15.9289 24.3379 15.7401 24.3379H15.7402Z" fill="#212121"/>
<path d="M12.2592 3.63194H15.7397C15.9285 3.63194 16.1022 3.52756 16.1908 3.36168C16.2802 3.19581 16.2709 2.99348 16.1665 2.83619L14.4263 0.214487C14.2362 -0.0714955 13.7629 -0.0714955 13.5727 0.214487L11.8325 2.83619C11.7281 2.99348 11.7181 3.1958 11.8082 3.36168C11.8968 3.52827 12.0706 3.63194 12.2593 3.63194H12.2592Z" fill="#212121"/>
<path d="M3.37669 11.7935C3.21083 11.7034 3.00849 11.7142 2.8512 11.8178L0.229501 13.5573C0.0865096 13.6524 0 13.8125 0 13.9849C0 14.1557 0.0857958 14.3173 0.229501 14.4124L2.8512 16.1533C2.93699 16.2091 3.03565 16.2384 3.13433 16.2384C3.21726 16.2384 3.3002 16.2184 3.37669 16.1776C3.54328 16.0882 3.64695 15.9152 3.64695 15.7265V12.246C3.64695 12.0558 3.54329 11.8821 3.37669 11.7934V11.7935Z" fill="#212121"/>
<path d="M25.148 11.8176C24.9908 11.7146 24.7877 11.7032 24.6226 11.7933C24.456 11.8826 24.3523 12.0557 24.3523 12.2444V15.7249C24.3523 15.9143 24.456 16.0874 24.6226 16.176C24.6983 16.2168 24.782 16.2368 24.8649 16.2368C24.9643 16.2368 25.063 16.2075 25.148 16.1517L27.7705 14.4108C27.9135 14.3157 28 14.1556 28 13.9833C28 13.8109 27.9142 13.6508 27.7705 13.5557L25.148 11.8176Z" fill="#212121"/>
<path d="M7.91387 22.5364L5.45305 20.0756C5.31935 19.9419 5.12345 19.8933 4.94256 19.9476C4.76168 20.002 4.62583 20.1514 4.58866 20.3366L3.96523 23.421C3.93091 23.5897 3.98382 23.7634 4.10536 23.885C4.2269 24.0065 4.40064 24.0587 4.56937 24.0251L7.65377 23.4017C7.83894 23.3645 7.98836 23.2279 8.0427 23.0478C8.09632 22.8669 8.04771 22.6703 7.91402 22.5366L7.91387 22.5364Z" fill="#212121"/>
<path d="M20.0946 5.43627L22.5554 7.89709C22.6891 8.03079 22.885 8.0794 23.0659 8.02507C23.2467 7.97073 23.3826 7.8213 23.4198 7.63613L24.0432 4.55173C24.1111 4.215 23.7765 3.88038 23.4398 3.94831L20.3554 4.57174C20.1702 4.60892 20.0208 4.74547 19.9664 4.92564C19.9121 5.10653 19.9607 5.30314 20.0944 5.43613L20.0946 5.43627Z" fill="#212121"/>
<path d="M8.04192 4.92655C7.9883 4.74567 7.83745 4.60982 7.6537 4.57194L4.5693 3.94777C4.40057 3.91345 4.22684 3.96636 4.10529 4.0879C3.98446 4.20873 3.93084 4.3839 3.96516 4.55192L4.5886 7.63686C4.60933 7.73696 4.65866 7.82705 4.72872 7.89711C4.78735 7.95574 4.86027 8.00078 4.94321 8.02509C5.1241 8.08014 5.31999 8.03081 5.4537 7.89711L7.91452 5.43629C8.0475 5.30331 8.09612 5.10741 8.04178 4.92652L8.04192 4.92655Z" fill="#212121"/>
<path d="M23.4204 20.3362C23.3825 20.1524 23.2459 20.0009 23.0658 19.9479C22.8849 19.8929 22.689 19.9422 22.5553 20.0759L20.0945 22.5367C19.9608 22.6704 19.9114 22.8663 19.9665 23.0472C19.9915 23.1302 20.0358 23.2031 20.0945 23.2617C20.1645 23.3318 20.2546 23.3811 20.3547 23.4018L23.4397 24.0253C23.6084 24.0596 23.7821 24.0067 23.9037 23.8851C24.0252 23.7636 24.0781 23.5892 24.0438 23.4211L23.4204 20.3362Z" fill="#212121"/>
</svg>
