<svg width="27" height="27" viewBox="0 0 27 27" fill="none" xmlns="http://www.w3.org/2000/svg">
<path d="M13.4821 5.12085C8.87938 5.12085 5.13525 8.86498 5.13525 13.4677C5.13525 18.0704 8.87938 21.8145 13.4821 21.8145C18.0848 21.8145 21.8289 18.0704 21.8289 13.4677C21.8289 8.86427 18.0848 5.12085 13.4821 5.12085V5.12085Z" fill="#212121"/>
<path d="M15.1581 23.438H11.8064C11.6246 23.438 11.4573 23.5385 11.3719 23.6983C11.2858 23.858 11.2948 24.0528 11.3953 24.2043L13.0712 26.7291C13.1627 26.8668 13.317 26.9501 13.4822 26.9501C13.6474 26.9501 13.8017 26.8675 13.8932 26.7291L15.5691 24.2043C15.6696 24.0528 15.6793 23.858 15.5925 23.6983C15.5071 23.5378 15.3398 23.438 15.1581 23.438H15.1581Z" fill="#212121"/>
<path d="M11.806 3.49764H15.1577C15.3395 3.49764 15.5068 3.39712 15.5922 3.23737C15.6782 3.07764 15.6693 2.88279 15.5688 2.73131L13.8929 0.206555C13.7098 -0.0688518 13.254 -0.0688518 13.0708 0.206555L11.395 2.73131C11.2944 2.88278 11.2848 3.07763 11.3716 3.23737C11.4569 3.3978 11.6243 3.49764 11.806 3.49764H11.806Z" fill="#212121"/>
<path d="M3.25183 11.3572C3.0921 11.2704 2.89724 11.2808 2.74577 11.3806L0.221014 13.0557C0.0833107 13.1473 0 13.3015 0 13.4675C0 13.632 0.0826232 13.7876 0.221014 13.8792L2.74577 15.5557C2.82839 15.6094 2.9234 15.6377 3.01842 15.6377C3.09829 15.6377 3.17816 15.6184 3.25183 15.5792C3.41226 15.4931 3.5121 15.3265 3.5121 15.1447V11.7929C3.5121 11.6098 3.41226 11.4425 3.25183 11.3571V11.3572Z" fill="#212121"/>
<path d="M24.2181 11.3799C24.0666 11.2807 23.8711 11.2697 23.712 11.3565C23.5516 11.4425 23.4518 11.6091 23.4518 11.7909V15.1427C23.4518 15.3251 23.5516 15.4918 23.712 15.5771C23.785 15.6164 23.8656 15.6356 23.9454 15.6356C24.0411 15.6356 24.1362 15.6074 24.2181 15.5537L26.7436 13.8772C26.8813 13.7856 26.9646 13.6314 26.9646 13.4655C26.9646 13.2995 26.882 13.1453 26.7436 13.0537L24.2181 11.3799Z" fill="#212121"/>
<path d="M7.62127 21.7036L5.25145 19.3337C5.1227 19.205 4.93404 19.1582 4.75984 19.2105C4.58565 19.2628 4.45482 19.4067 4.41902 19.585L3.81865 22.5554C3.7856 22.7179 3.83655 22.8852 3.9536 23.0022C4.07064 23.1193 4.23796 23.1696 4.40045 23.1372L7.37079 22.5368C7.54911 22.501 7.69301 22.3695 7.74534 22.196C7.79698 22.0218 7.75017 21.8325 7.62142 21.7037L7.62127 21.7036Z" fill="#212121"/>
<path d="M19.3515 5.23566L21.7213 7.60548C21.8501 7.73423 22.0388 7.78105 22.213 7.72873C22.3872 7.6764 22.518 7.5325 22.5538 7.35417L23.1541 4.38383C23.2196 4.05954 22.8973 3.7373 22.573 3.80271L19.6027 4.40309C19.4244 4.4389 19.2805 4.57041 19.2281 4.74391C19.1758 4.91811 19.2226 5.10745 19.3514 5.23552L19.3515 5.23566Z" fill="#212121"/>
<path d="M7.74459 4.74374C7.69296 4.56955 7.54768 4.43872 7.37073 4.40224L4.40038 3.80115C4.23789 3.7681 4.07058 3.81905 3.95353 3.9361C3.83717 4.05246 3.78553 4.22115 3.81858 4.38296L4.41896 7.35383C4.43893 7.45022 4.48643 7.53698 4.55391 7.60445C4.61036 7.66091 4.6806 7.70429 4.76047 7.7277C4.93466 7.78071 5.12332 7.73321 5.25207 7.60445L7.6219 5.23463C7.74996 5.10657 7.79678 4.91791 7.74445 4.74371L7.74459 4.74374Z" fill="#212121"/>
<path d="M22.5544 19.5848C22.5179 19.4078 22.3864 19.2619 22.2129 19.2109C22.0387 19.1579 21.8501 19.2054 21.7213 19.3342L19.3515 21.704C19.2227 21.8327 19.1752 22.0214 19.2282 22.1956C19.2523 22.2755 19.295 22.3457 19.3515 22.4022C19.419 22.4696 19.5057 22.5171 19.6021 22.5371L22.573 23.1375C22.7355 23.1705 22.9028 23.1196 23.0198 23.0025C23.1369 22.8855 23.1878 22.7175 23.1548 22.5557L22.5544 19.5848Z" fill="#212121"/>
</svg>
