<svg width="12" height="92" viewBox="0 0 12 92" fill="none" xmlns="http://www.w3.org/2000/svg">
<path d="M6.75 1C6.75 0.585786 6.41421 0.25 6 0.25C5.58579 0.25 5.25 0.585786 5.25 1L6.75 1ZM5.46967 91.5303C5.76257 91.8232 6.23744 91.8232 6.53033 91.5303L11.3033 86.7574C11.5962 86.4645 11.5962 85.9896 11.3033 85.6967C11.0104 85.4038 10.5355 85.4038 10.2426 85.6967L6 89.9393L1.75736 85.6967C1.46447 85.4038 0.989596 85.4038 0.696703 85.6967C0.40381 85.9896 0.40381 86.4645 0.696703 86.7574L5.46967 91.5303ZM5.25 1L5.25 91L6.75 91L6.75 1L5.25 1Z" fill="#007F5F"/>
</svg>
