<svg width="1792" height="210" viewBox="0 0 1792 210" fill="none" xmlns="http://www.w3.org/2000/svg">
<g clip-path="url(#clip0_300_525)">
<path d="M1708.1 157.226C1708.09 162.251 1706.15 167.081 1702.68 170.711C1699.2 174.342 1694.46 176.493 1689.44 176.718V176.718H1617.64C1614.81 176.732 1612.01 176.131 1609.43 174.955C1606.85 173.78 1604.56 172.058 1602.72 169.91C1600.87 167.761 1599.52 165.237 1598.74 162.513C1597.97 159.788 1597.8 156.928 1598.24 154.131C1598.68 151.333 1599.72 148.665 1601.3 146.31C1602.87 143.956 1604.94 141.972 1607.36 140.496C1609.77 139.019 1612.48 138.086 1615.3 137.76C1618.11 137.434 1620.96 137.724 1623.65 138.608C1623.78 131.421 1626.76 124.58 1631.94 119.59C1637.12 114.601 1644.06 111.873 1651.25 112.005C1658.44 112.137 1665.28 115.119 1670.27 120.295C1675.26 125.47 1677.99 132.416 1677.85 139.604C1677.85 140.042 1677.85 140.462 1677.85 140.909C1680.44 139.205 1683.4 138.142 1686.48 137.81C1689.57 137.478 1692.68 137.886 1695.58 139C1698.47 140.113 1701.06 141.9 1703.12 144.213C1705.19 146.526 1706.67 149.298 1707.45 152.299C1707.88 153.906 1708.1 155.562 1708.1 157.226Z" fill="#F0E7D8" stroke="#5B2684" stroke-width="0.858328" stroke-linecap="round" stroke-linejoin="round"/>
<path d="M1636.98 146.308C1636.93 146.223 1636.88 146.134 1636.84 146.042C1635.54 143.149 1624 139 1624 139C1624.13 135.1 1624.79 130.944 1626.54 127.455C1628.29 123.966 1630.77 120.896 1633.81 118.455C1630.3 127.459 1636.98 145.862 1636.98 146.308Z" fill="url(#paint0_linear_300_525)"/>
<path d="M1707.32 157.5C1707.31 162.39 1705.8 167.467 1702.32 171C1698.83 174.533 1694.04 176.281 1689 176.5H1617.7C1614.6 176.497 1611.79 175.709 1609.03 174.342C1606.27 172.975 1603.65 171.068 1601.83 168.635C1600.02 166.202 1599.48 163.199 1599 160.231C1598.52 157.263 1599.04 153.355 1600 150.5C1600 150.5 1609.59 164.648 1620.06 163.863C1630.52 163.077 1634.87 159.486 1639.05 163.236C1643.24 166.986 1652.91 169.075 1660.01 165.049C1667.11 161.023 1682.72 158.367 1690.93 163.32C1697.82 167.496 1704.08 158.689 1706.32 152.5C1706.74 154.057 1707.33 155.891 1707.32 157.5Z" fill="url(#paint1_linear_300_525)"/>
<path d="M240.101 92.2256C240.095 97.2512 238.152 102.081 234.677 105.711C231.202 109.342 226.461 111.493 221.441 111.718H149.642C146.81 111.732 144.008 111.131 141.432 109.955C138.855 108.78 136.564 107.058 134.719 104.91C132.873 102.761 131.517 100.237 130.743 97.5129C129.97 94.7884 129.797 91.9283 130.238 89.1307C130.68 86.333 131.723 83.6647 133.298 81.3103C134.872 78.956 136.939 76.972 139.356 75.4956C141.773 74.0193 144.482 73.0859 147.296 72.76C150.109 72.4342 152.96 72.7237 155.65 73.6085C155.782 66.4206 158.764 59.5797 163.94 54.5905C169.116 49.6013 176.062 46.8725 183.25 47.0046C190.437 47.1366 197.278 50.1186 202.268 55.2945C207.257 60.4704 209.985 67.4163 209.853 74.6041C209.853 75.0419 209.853 75.4625 209.853 75.9088C212.443 74.2046 215.402 73.1424 218.485 72.8104C221.567 72.4783 224.684 72.886 227.578 73.9995C230.471 75.1131 233.057 76.9004 235.122 79.2133C237.186 81.5262 238.67 84.298 239.449 87.2988C239.879 88.9058 240.098 90.562 240.101 92.2256Z" fill="#F0E7D8" stroke="#5B2684" stroke-width="0.858328" stroke-linecap="round" stroke-linejoin="round"/>
<path d="M168.98 81.3078C168.928 81.2225 168.882 81.1336 168.842 81.0418C167.538 78.1492 155.684 73.6687 155.684 73.6687C155.818 69.7689 156.792 65.9438 158.54 62.4551C160.288 58.9664 162.768 55.8964 165.813 53.4551C162.302 62.4589 168.98 80.8615 168.98 81.3078Z" fill="url(#paint2_linear_300_525)"/>
<path d="M239.5 92C239.494 96.8852 238.497 101.471 235 105C231.503 108.529 226.879 110.781 221.827 111H148.5C145.393 110.997 143.41 110.284 140.643 108.918C137.877 107.553 135.823 105.43 134 103C132.178 100.57 131.481 97.9648 131 95C130.519 92.0352 131.035 88.8523 132 86C132 86 141.441 99.1604 151.944 98.3761C162.447 97.5918 166.809 94.004 171.006 97.7503C175.204 101.497 184.904 103.583 192.029 99.5609C199.155 95.5392 214.814 92.886 223.054 97.8337C229.963 102.006 236.754 93.6826 239 87.5C239.419 89.0555 239.506 90.3927 239.5 92Z" fill="url(#paint3_linear_300_525)"/>
<path d="M38.8663 148.735C38.8613 152.929 37.2405 156.959 34.3408 159.988C31.4412 163.017 27.4857 164.812 23.2967 165H-36.6113C-38.9744 165.012 -41.3118 164.51 -43.4617 163.529C-45.6117 162.548 -47.5228 161.111 -49.0626 159.319C-50.6025 157.526 -51.7343 155.42 -52.3798 153.147C-53.0253 150.874 -53.1691 148.487 -52.801 146.153C-52.433 143.819 -51.562 141.592 -50.2484 139.628C-48.9348 137.664 -47.2099 136.008 -45.1933 134.776C-43.1766 133.544 -40.9164 132.766 -38.5689 132.494C-36.2215 132.222 -33.8429 132.463 -31.5981 133.202C-31.4879 127.204 -28.9998 121.496 -24.6811 117.333C-20.3624 113.17 -14.5669 110.894 -8.56948 111.004C-2.57209 111.114 3.13588 113.602 7.29878 117.921C11.4617 122.239 13.7385 128.035 13.6283 134.032C13.6283 134.398 13.6283 134.749 13.6283 135.121C15.7893 133.699 18.2581 132.813 20.83 132.536C23.402 132.259 26.0029 132.599 28.4171 133.528C30.8313 134.457 32.9892 135.948 34.7118 137.878C36.4344 139.808 37.672 142.121 38.322 144.625C38.6809 145.966 38.8639 147.347 38.8663 148.735Z" fill="#F0E7D8" stroke="#5B2684" stroke-width="0.716175" stroke-linecap="round" stroke-linejoin="round"/>
<path d="M38.3649 148.547C38.3599 152.623 37.528 156.45 34.6102 159.394C31.6923 162.339 27.8344 164.218 23.6191 164.4H-37.5639C-40.156 164.398 -41.8113 163.803 -44.1194 162.663C-46.4275 161.524 -48.1418 159.753 -49.6623 157.725C-51.1829 155.698 -51.7642 153.524 -52.1655 151.05C-52.5668 148.577 -52.1367 145.921 -51.3311 143.541C-51.3311 143.541 -43.4534 154.522 -34.6901 153.867C-25.9268 153.213 -22.2874 150.219 -18.7849 153.345C-15.2825 156.471 -7.18941 158.211 -1.2439 154.856C4.7016 151.5 17.7673 149.286 24.6425 153.415C30.4078 156.896 36.074 149.951 37.9477 144.792C38.2973 146.09 38.37 147.206 38.3649 148.547Z" fill="url(#paint4_linear_300_525)"/>
<path d="M1845.87 33.5426C1845.86 37.27 1844.42 40.8522 1841.84 43.5447C1839.27 46.2372 1835.75 47.8328 1832.03 47.9998H1778.78C1776.67 48.0103 1774.6 47.5641 1772.69 46.6922C1770.77 45.8203 1769.08 44.5434 1767.71 42.95C1766.34 41.3566 1765.33 39.4848 1764.76 37.4641C1764.19 35.4434 1764.06 33.3221 1764.38 31.2472C1764.71 29.1723 1765.49 27.1932 1766.65 25.4471C1767.82 23.7009 1769.35 22.2294 1771.15 21.1345C1772.94 20.0395 1774.95 19.3472 1777.04 19.1055C1779.12 18.8638 1781.24 19.0786 1783.23 19.7348C1783.33 14.4038 1785.54 9.33001 1789.38 5.62965C1793.22 1.92929 1798.37 -0.0945301 1803.7 0.00339516C1809.03 0.10132 1814.11 2.31297 1817.81 6.15182C1821.51 9.99066 1823.53 15.1422 1823.43 20.4733C1823.43 20.7979 1823.43 21.1099 1823.43 21.4409C1825.35 20.1769 1827.55 19.3891 1829.83 19.1429C1832.12 18.8966 1834.43 19.199 1836.58 20.0248C1838.72 20.8507 1840.64 22.1764 1842.17 23.8918C1843.7 25.6072 1844.8 27.663 1845.38 29.8886C1845.7 31.0805 1845.86 32.3088 1845.87 33.5426Z" fill="#F0E7D8" stroke="#5B2684" stroke-width="0.6366" stroke-linecap="round" stroke-linejoin="round"/>
<path d="M1793.12 25.4453C1793.08 25.382 1793.05 25.316 1793.02 25.2479C1792.05 23.1026 1783.26 19.7795 1783.26 19.7795C1783.36 16.8871 1784.08 14.0501 1785.37 11.4627C1786.67 8.87521 1788.51 6.59828 1790.77 4.7876C1788.16 11.4655 1793.12 25.1142 1793.12 25.4453Z" fill="url(#paint5_linear_300_525)"/>
<path d="M1845.42 33.3753C1845.42 36.9986 1844.68 40.3998 1842.08 43.0171C1839.49 45.6344 1836.06 47.3048 1832.31 47.4671H1777.93C1775.62 47.465 1774.15 46.9359 1772.1 45.9231C1770.05 44.9103 1768.53 43.3362 1767.17 41.5337C1765.82 39.7312 1765.31 37.7992 1764.95 35.6004C1764.59 33.4015 1764.97 31.0408 1765.69 28.9253C1765.69 28.9253 1772.69 38.686 1780.48 38.1043C1788.27 37.5226 1791.51 34.8617 1794.62 37.6402C1797.73 40.4187 1804.93 41.9658 1810.21 38.983C1815.5 36.0003 1827.11 34.0324 1833.22 37.7021C1838.35 40.7962 1843.38 34.6233 1845.05 30.0378C1845.36 31.1915 1845.43 32.1832 1845.42 33.3753Z" fill="url(#paint6_linear_300_525)"/>
<path d="M428.697 198.955C428.693 201.773 427.604 204.482 425.655 206.518C423.707 208.555 421.049 209.762 418.234 209.89V209.89H377.961C375.054 209.89 372.266 208.735 370.21 206.68C368.155 204.624 367 201.836 367 198.929C367 196.022 368.155 193.234 370.21 191.179C372.266 189.123 375.054 187.968 377.961 187.968C379.112 187.971 380.256 188.154 381.351 188.509C381.534 184.555 383.25 180.829 386.136 178.12C389.021 175.411 392.849 173.934 396.807 174.002C400.764 174.07 404.539 175.678 407.33 178.485C410.12 181.291 411.707 185.075 411.753 189.033C411.753 189.282 411.753 189.522 411.753 189.762C413.405 188.675 415.321 188.056 417.296 187.97C419.272 187.884 421.234 188.336 422.974 189.276C424.713 190.216 426.166 191.61 427.176 193.31C428.187 195.01 428.718 196.952 428.714 198.929L428.697 198.955Z" fill="#F0E7D8" stroke="#5B2684" stroke-width="0.858328" stroke-linecap="round" stroke-linejoin="round"/>
<path d="M389.132 193.199L389.055 193.053C388.326 191.431 381.682 188.916 381.682 188.916C381.755 186.729 382.3 184.583 383.279 182.626C384.258 180.669 385.649 178.947 387.356 177.578C385.39 182.668 389.132 192.967 389.132 193.199Z" fill="url(#paint7_linear_300_525)"/>
<path d="M428.182 199.078C428.178 201.896 427.131 204.041 425.182 206.078C423.234 208.114 420.998 208.95 418.182 209.078L378.682 209.578C376.951 209.575 375.224 209.366 373.682 208.578C372.141 207.789 370.698 206.48 369.682 205.078C368.666 203.676 367.952 201.788 367.682 200.078C367.413 198.367 367.647 196.724 368.183 195.078C368.183 195.078 373.42 203.058 379.274 202.603C385.128 202.148 387.566 200.079 389.9 202.242C392.235 204.405 397.625 205.573 401.608 203.238C405.591 200.903 414.311 199.358 418.903 202.242C422.757 204.663 426.429 199.648 427.682 196.078C427.92 196.991 428.186 198.134 428.182 199.078Z" fill="url(#paint8_linear_300_525)"/>
<path d="M1375.71 114.136C1375.71 116.956 1374.62 119.667 1372.67 121.704C1370.72 123.741 1368.06 124.947 1365.24 125.071H1324.96C1322.05 125.071 1319.27 123.916 1317.21 121.861C1315.15 119.805 1314 117.017 1314 114.11C1314 111.203 1315.15 108.415 1317.21 106.36C1319.27 104.304 1322.05 103.15 1324.96 103.15C1326.13 103.146 1327.29 103.331 1328.39 103.699C1328.53 99.7104 1330.22 95.9344 1333.12 93.1851C1336.01 90.4358 1339.87 88.9336 1343.86 89.0023C1347.85 89.071 1351.65 90.7051 1354.45 93.5523C1357.24 96.3996 1358.81 100.232 1358.8 104.222C1358.8 104.463 1358.8 104.712 1358.8 104.952C1360.26 103.995 1361.92 103.399 1363.65 103.213C1365.38 103.027 1367.13 103.256 1368.75 103.881C1370.37 104.506 1371.82 105.51 1372.98 106.808C1374.14 108.107 1374.97 109.662 1375.4 111.347C1375.63 112.259 1375.73 113.197 1375.71 114.136V114.136Z" fill="#F0E7D8" stroke="#5B2684" stroke-width="0.858328" stroke-linecap="round" stroke-linejoin="round"/>
<path d="M1335.81 108.008C1335.78 107.96 1335.75 107.908 1335.73 107.853C1335 106.231 1328.35 103.725 1328.35 103.725C1328.43 101.537 1328.97 99.3912 1329.95 97.4342C1330.93 95.4772 1332.33 93.7552 1334.03 92.3862C1332.07 97.4332 1335.81 107.759 1335.81 108.008Z" fill="url(#paint9_linear_300_525)"/>
<path d="M1375.36 114.305C1375.36 117.05 1374.28 119.69 1372.35 121.674C1370.43 123.658 1367.8 124.833 1365.01 124.953H1325.19C1323.48 124.954 1321.79 124.555 1320.26 123.789C1318.74 123.022 1317.42 121.91 1316.41 120.543C1315.41 119.177 1314.75 117.595 1314.49 115.928C1314.22 114.261 1314.36 112.556 1314.9 110.953C1314.9 110.953 1320.71 118.3 1326.5 117.857C1332.29 117.414 1334.69 115.408 1337 117.514C1339.32 119.621 1344.64 120.757 1348.58 118.476C1352.51 116.194 1361.14 114.706 1365.67 117.514C1369.48 119.863 1373.77 115.057 1375.01 111.588C1375.25 112.474 1375.36 113.388 1375.36 114.305Z" fill="url(#paint10_linear_300_525)"/>
<path d="M1054.71 152.912C1054.7 155.732 1053.61 158.442 1051.66 160.478C1049.71 162.515 1047.05 163.721 1044.23 163.847V163.847H1003.96C1002.52 163.847 1001.1 163.564 999.766 163.013C998.437 162.462 997.228 161.655 996.21 160.637C994.155 158.581 993 155.793 993 152.886C992.996 151.72 993.179 150.561 993.541 149.453C994.271 147.269 995.671 145.37 997.541 144.027C999.412 142.683 1001.66 141.963 1003.96 141.968C1005.11 141.971 1006.26 142.154 1007.35 142.509C1007.53 138.555 1009.25 134.829 1012.14 132.12C1015.02 129.411 1018.85 127.934 1022.81 128.002C1026.76 128.07 1030.54 129.678 1033.33 132.485C1036.12 135.291 1037.71 139.075 1037.75 143.033C1037.75 143.282 1037.75 143.522 1037.75 143.762C1039.4 142.678 1041.32 142.061 1043.29 141.976C1045.26 141.89 1047.22 142.341 1048.96 143.279C1050.7 144.217 1052.15 145.607 1053.16 147.303C1054.17 148.999 1054.71 150.937 1054.71 152.912V152.912Z" fill="#F0E7D8" stroke="#5B2684" stroke-width="0.858328" stroke-linecap="round" stroke-linejoin="round"/>
<path d="M1015.29 147.177C1015.25 147.132 1015.22 147.083 1015.2 147.031C1014.47 145.409 1007.83 142.894 1007.83 142.894C1007.9 140.707 1008.44 138.561 1009.42 136.604C1010.4 134.647 1011.79 132.925 1013.5 131.555C1011.53 136.602 1015.29 146.928 1015.29 147.177Z" fill="url(#paint11_linear_300_525)"/>
<path d="M1054 152.518C1054 155.337 1053.45 157.981 1051.5 160.018C1049.55 162.054 1047.32 163.392 1044.5 163.518H1004.5C1003.06 163.518 1001.33 163.068 1000 162.518C998.67 161.967 997.518 161.535 996.5 160.518C994.445 158.462 993.5 155.425 993.5 152.518C993.496 151.352 993.638 150.126 994 149.018C994 149.018 999.42 156.998 1005.27 156.543C1011.13 156.088 1013.57 154.019 1015.9 156.182C1018.24 158.345 1023.63 159.513 1027.61 157.178C1031.59 154.843 1040.31 153.298 1044.9 156.182C1048.76 158.603 1052.25 153.08 1053.5 149.518C1053.74 150.436 1054 151.567 1054 152.518Z" fill="url(#paint12_linear_300_525)"/>
</g>
<defs>
<linearGradient id="paint0_linear_300_525" x1="1635.45" y1="142.634" x2="1624.72" y2="124.609" gradientUnits="userSpaceOnUse">
<stop offset="0.0648515" stop-color="#C0C4D5"/>
<stop offset="1" stop-color="#F0E7D8"/>
</linearGradient>
<linearGradient id="paint1_linear_300_525" x1="1646.07" y1="191.694" x2="1646.88" y2="158.283" gradientUnits="userSpaceOnUse">
<stop stop-color="#8799D0"/>
<stop offset="1" stop-color="#F0E7D8"/>
</linearGradient>
<linearGradient id="paint2_linear_300_525" x1="167.452" y1="77.6341" x2="156.723" y2="59.6092" gradientUnits="userSpaceOnUse">
<stop offset="0.0648515" stop-color="#C0C4D5"/>
<stop offset="1" stop-color="#F0E7D8"/>
</linearGradient>
<linearGradient id="paint3_linear_300_525" x1="177.864" y1="126.678" x2="178.67" y2="93.3017" gradientUnits="userSpaceOnUse">
<stop stop-color="#8799D0"/>
<stop offset="1" stop-color="#F0E7D8"/>
</linearGradient>
<linearGradient id="paint4_linear_300_525" x1="-13.0634" y1="177.482" x2="-12.3908" y2="149.633" gradientUnits="userSpaceOnUse">
<stop stop-color="#8799D0"/>
<stop offset="1" stop-color="#F0E7D8"/>
</linearGradient>
<linearGradient id="paint5_linear_300_525" x1="1791.98" y1="22.7206" x2="1784.03" y2="9.35197" gradientUnits="userSpaceOnUse">
<stop offset="0.0648515" stop-color="#C0C4D5"/>
<stop offset="1" stop-color="#F0E7D8"/>
</linearGradient>
<linearGradient id="paint6_linear_300_525" x1="1799.71" y1="59.0948" x2="1800.3" y2="34.3408" gradientUnits="userSpaceOnUse">
<stop stop-color="#8799D0"/>
<stop offset="1" stop-color="#F0E7D8"/>
</linearGradient>
<linearGradient id="paint7_linear_300_525" x1="385.407" y1="177.578" x2="385.407" y2="193.199" gradientUnits="userSpaceOnUse">
<stop stop-color="#BEC2D5"/>
<stop offset="1" stop-color="#E8E8E8"/>
</linearGradient>
<linearGradient id="paint8_linear_300_525" x1="397.682" y1="198.578" x2="397.682" y2="213.078" gradientUnits="userSpaceOnUse">
<stop stop-color="#C8CBDA"/>
<stop offset="1" stop-color="#E4E4E4" stop-opacity="0"/>
</linearGradient>
<linearGradient id="paint9_linear_300_525" x1="1335.97" y1="108.342" x2="1329.11" y2="96.3258" gradientUnits="userSpaceOnUse">
<stop offset="0.0546676" stop-color="#C7C9D6"/>
<stop offset="1" stop-color="#F0E7D8" stop-opacity="0.26"/>
</linearGradient>
<linearGradient id="paint10_linear_300_525" x1="1344.99" y1="124.544" x2="1344.99" y2="114.932" gradientUnits="userSpaceOnUse">
<stop stop-color="#C4C6D5"/>
<stop offset="1" stop-color="#F0E7D8"/>
</linearGradient>
<linearGradient id="paint11_linear_300_525" x1="1011.08" y1="131.154" x2="1011" y2="150.518" gradientUnits="userSpaceOnUse">
<stop stop-color="#C0C3D5"/>
<stop offset="1" stop-color="#C4C4C4" stop-opacity="0"/>
</linearGradient>
<linearGradient id="paint12_linear_300_525" x1="1023.85" y1="149.453" x2="1024" y2="169.518" gradientUnits="userSpaceOnUse">
<stop stop-color="#C1C4D5"/>
<stop offset="1" stop-color="#C4C4C4" stop-opacity="0"/>
</linearGradient>
<clipPath id="clip0_300_525">
<rect width="1792" height="210" fill="white"/>
</clipPath>
</defs>
</svg>
