<svg width="64" height="38" viewBox="0 0 64 38" fill="none" xmlns="http://www.w3.org/2000/svg">
<path d="M62.7053 25.9121C62.7015 28.7318 61.6111 31.4416 59.6609 33.4782C57.7107 35.5147 55.0506 36.7213 52.2337 36.8472V36.8472H11.9609C10.5215 36.8472 9.0962 36.5637 7.76637 36.0128C6.43654 35.462 5.22822 34.6546 4.21041 33.6368C2.15485 31.5813 1.00005 28.7933 1.00005 25.8863C0.996406 24.7204 1.17895 23.5614 1.5408 22.453C2.27118 20.2689 3.67093 18.3704 5.54139 17.0269C7.41184 15.6833 9.65795 14.9631 11.9609 14.9684C13.1123 14.9714 14.2561 15.1538 15.3513 15.5091C15.5336 11.5555 17.2498 7.82857 20.1356 5.11989C23.0214 2.41121 26.8494 0.934106 30.8066 1.00226C34.7639 1.07041 38.5388 2.67844 41.3296 5.48488C44.1204 8.29132 45.7073 12.0751 45.7533 16.0327C45.7533 16.2816 45.7533 16.5219 45.7533 16.7623C47.4038 15.6781 49.3169 15.0607 51.2898 14.9756C53.2627 14.8905 55.2218 15.3407 56.9596 16.2787C58.6973 17.2166 60.1489 18.6073 61.1605 20.3033C62.172 21.9993 62.7058 23.9373 62.7053 25.9121V25.9121Z" fill="#F0E7D8" stroke="#5B2684" stroke-width="0.858328" stroke-linecap="round" stroke-linejoin="round"/>
<path d="M23.2855 20.1768C23.2509 20.1319 23.2221 20.0829 23.1997 20.0308C22.4701 18.4086 15.8267 15.8937 15.8267 15.8937C15.8994 13.7065 16.4441 11.5609 17.4233 9.60391C18.4026 7.64687 19.7933 5.92463 21.5002 4.55518C19.5346 9.60215 23.2855 19.9278 23.2855 20.1768Z" fill="url(#paint0_linear_352_340)"/>
<path d="M62 25.5176C61.9962 28.3373 61.4502 30.981 59.5 33.0176C57.5498 35.0541 55.3169 36.3917 52.5 36.5176H12.5001C11.0607 36.5176 9.3299 36.0684 8.00007 35.5176C6.67024 34.9667 5.51788 34.5354 4.50007 33.5176C2.44451 31.462 1.50007 28.4246 1.50007 25.5176C1.49642 24.3517 1.63822 23.1259 2.00007 22.0176C2.00007 22.0176 7.42047 29.9978 13.2743 29.5429C19.1281 29.088 21.5657 27.0194 23.9004 29.1824C26.235 31.3454 31.6253 32.5127 35.608 30.1781C39.5906 27.8434 48.3112 26.2984 52.9033 29.1824C56.7572 31.6029 60.2468 26.0796 61.5 22.5176C61.7423 23.4363 62.0029 24.5674 62 25.5176Z" fill="url(#paint1_linear_352_340)"/>
<defs>
<linearGradient id="paint0_linear_352_340" x1="19.0805" y1="4.15381" x2="19" y2="23.5176" gradientUnits="userSpaceOnUse">
<stop stop-color="#C0C3D5"/>
<stop offset="1" stop-color="#C4C4C4" stop-opacity="0"/>
</linearGradient>
<linearGradient id="paint1_linear_352_340" x1="31.8527" y1="22.4531" x2="32" y2="42.5176" gradientUnits="userSpaceOnUse">
<stop stop-color="#C1C4D5"/>
<stop offset="1" stop-color="#C4C4C4" stop-opacity="0"/>
</linearGradient>
</defs>
</svg>
