<svg width="65" height="39" viewBox="0 0 65 39" fill="none" xmlns="http://www.w3.org/2000/svg">
<path d="M64.7051 26.8841C64.7016 29.8164 63.5682 32.6346 61.5405 34.7528C59.5128 36.8709 56.7467 38.1262 53.8174 38.2576V38.2576H11.9243C10.2718 38.2659 8.6373 37.9149 7.13387 37.2289C5.63045 36.5429 4.29403 35.5384 3.21723 34.2849C2.14043 33.0314 1.34893 31.5588 0.897545 29.9691C0.446154 28.3795 0.345645 26.7107 0.602998 25.0783C0.860352 23.446 1.46942 21.889 2.388 20.5153C3.30659 19.1417 4.51281 17.984 5.92304 17.1226C7.33328 16.2612 8.91384 15.7166 10.5554 15.5264C12.1969 15.3363 13.8602 15.5052 15.43 16.0215C15.507 11.8276 17.2469 7.83602 20.267 4.92495C23.287 2.01387 27.3398 0.421727 31.5337 0.498765C35.7276 0.575803 39.7191 2.31571 42.6302 5.33574C45.5413 8.35576 47.1335 12.4085 47.0564 16.6024C47.0564 16.8578 47.0564 17.1032 47.0564 17.3637C48.5675 16.3693 50.294 15.7496 52.0925 15.5558C53.891 15.3621 55.7098 15.5999 57.3981 16.2497C59.0863 16.8994 60.5953 17.9423 61.7999 19.2918C63.0044 20.6413 63.8699 22.2586 64.3245 24.0095C64.5754 24.9471 64.7034 25.9135 64.7051 26.8841Z" fill="#F0E7D8" stroke="#5B2684" stroke-width="0.500814" stroke-linecap="round" stroke-linejoin="round"/>
<path d="M23.2079 20.5131C23.1776 20.4634 23.1508 20.4115 23.1278 20.3579C22.3665 18.6701 15.6345 16.2492 15.6345 16.2492C15.7123 13.9737 16.0964 11.5486 17.1163 9.51302C18.1363 7.47745 19.5838 5.68618 21.3599 4.26172C19.3116 9.51525 23.2079 20.2527 23.2079 20.5131Z" fill="url(#paint0_linear_778_29286)"/>
<path d="M64.2488 27.0453C64.2453 29.8987 63.365 32.8609 61.3314 34.9222C59.2977 36.9834 56.498 38.0034 53.56 38.1313H11.9562C10.1497 38.1296 8.50785 37.6695 6.89916 36.8719C5.29048 36.0743 3.76067 34.9618 2.70087 33.5422C1.64107 32.1227 1.32694 30.3706 1.04726 28.6389C0.767593 26.9072 1.07098 24.627 1.63246 22.9609C1.63246 22.9609 7.2247 31.2158 13.3325 30.7576C19.4403 30.2995 21.9769 28.2039 24.418 30.3921C26.8591 32.5803 32.4997 33.7987 36.6436 31.4497C40.7874 29.1006 49.8939 27.5508 54.6857 30.4409C58.7039 32.8776 62.3593 27.7392 63.6653 24.1279C63.9089 25.0365 64.2523 26.1064 64.2488 27.0453Z" fill="url(#paint1_linear_778_29286)"/>
<defs>
<linearGradient id="paint0_linear_778_29286" x1="22.3165" y1="18.3696" x2="16.0563" y2="7.85251" gradientUnits="userSpaceOnUse">
<stop offset="0.0648515" stop-color="#C0C4D5"/>
<stop offset="1" stop-color="#F0E7D8"/>
</linearGradient>
<linearGradient id="paint1_linear_778_29286" x1="28.5117" y1="46.9969" x2="28.9846" y2="27.502" gradientUnits="userSpaceOnUse">
<stop stop-color="#8799D0"/>
<stop offset="1" stop-color="#F0E7D8"/>
</linearGradient>
</defs>
</svg>
