<svg width="65" height="39" viewBox="0 0 65 39" fill="none" xmlns="http://www.w3.org/2000/svg">
<path d="M64 26.8782C63.9965 29.7538 62.885 32.5175 60.8965 34.5948C58.9079 36.672 56.1954 37.903 53.3226 38.0319H12.239C10.6184 38.04 9.01551 37.6958 7.54113 37.0231C6.06675 36.3504 4.75616 35.3652 3.70016 34.1359C2.64417 32.9066 1.86797 31.4625 1.4253 29.9036C0.982629 28.3446 0.884062 26.7081 1.13644 25.1072C1.38882 23.5064 1.98612 21.9796 2.88696 20.6324C3.7878 19.2853 4.97071 18.15 6.3537 17.3053C7.73669 16.4605 9.28671 15.9264 10.8965 15.7399C12.5064 15.5535 14.1375 15.7191 15.677 16.2254C15.7525 12.1125 17.4588 8.19811 20.4205 5.34328C23.3821 2.48845 27.3566 0.92707 31.4695 1.00262C35.5824 1.07817 39.4968 2.78446 42.3516 5.74613C45.2064 8.7078 46.7678 12.6822 46.6923 16.7951C46.6923 17.0456 46.6923 17.2863 46.6923 17.5417C48.1742 16.5665 49.8673 15.9587 51.6311 15.7687C53.3948 15.5787 55.1785 15.812 56.8341 16.4492C58.4897 17.0864 59.9695 18.1091 61.1509 19.4325C62.3322 20.756 63.1809 22.342 63.6267 24.059C63.8728 24.9786 63.9983 25.9263 64 26.8782Z" fill="#F0E7D8" stroke="#5B2684" stroke-width="0.7" stroke-linecap="round" stroke-linejoin="round"/>
<path d="M23.3059 20.6321C23.2761 20.5833 23.2498 20.5324 23.2273 20.4798C22.4807 18.8247 15.8788 16.4505 15.8788 16.4505C15.955 14.219 16.3317 11.8408 17.3319 9.84453C18.3322 7.8483 19.7517 6.09164 21.4935 4.6947C19.4848 9.84673 23.3059 20.3767 23.3059 20.6321Z" fill="url(#paint0_linear_1198_7628)"/>
<path d="M63.5527 27.0339C63.5493 29.8322 62.6861 32.7372 60.6917 34.7586C58.6974 36.78 55.9517 37.7803 53.0705 37.9057H12.2706C10.499 37.904 8.88885 37.4528 7.31124 36.6706C5.73364 35.8884 4.23339 34.7974 3.19407 33.4053C2.15475 32.0131 1.84668 30.2949 1.57242 28.5967C1.29815 26.8984 1.59568 24.6623 2.1463 23.0284C2.1463 23.0284 7.6305 31.1238 13.6203 30.6745C19.61 30.2252 22.0976 28.1701 24.4915 30.316C26.8855 32.462 32.4171 33.6568 36.4809 31.3532C40.5447 29.0495 49.4752 27.5297 54.1744 30.3638C58.1151 32.7535 61.6998 27.7144 62.9805 24.1728C63.2195 25.0639 63.5562 26.1132 63.5527 27.0339Z" fill="url(#paint1_linear_1198_7628)"/>
<defs>
<linearGradient id="paint0_linear_1198_7628" x1="22.4316" y1="18.53" x2="16.2924" y2="8.21612" gradientUnits="userSpaceOnUse">
<stop offset="0.0648515" stop-color="#C0C4D5"/>
<stop offset="1" stop-color="#F0E7D8"/>
</linearGradient>
<linearGradient id="paint1_linear_1198_7628" x1="28.5062" y1="46.6" x2="28.9699" y2="27.4818" gradientUnits="userSpaceOnUse">
<stop stop-color="#8799D0"/>
<stop offset="1" stop-color="#F0E7D8"/>
</linearGradient>
</defs>
</svg>
