<svg width="112" height="67" viewBox="0 0 112 67" fill="none" xmlns="http://www.w3.org/2000/svg">
<path d="M111.101 46.2256C111.095 51.2512 109.152 56.0811 105.677 59.7114C102.202 63.3417 97.4614 65.493 92.4409 65.7182H20.6417C17.8095 65.7324 15.0082 65.1308 12.4315 63.9552C9.85484 62.7795 7.5644 61.0579 5.7189 58.9096C3.87341 56.7612 2.51689 54.2374 1.74327 51.5129C0.969643 48.7884 0.797382 45.9283 1.23845 43.1307C1.67952 40.333 2.72338 37.6647 4.29771 35.3103C5.87205 32.956 7.93934 30.972 10.3563 29.4956C12.7733 28.0193 15.4821 27.0859 18.2955 26.76C21.1089 26.4342 23.9595 26.7237 26.65 27.6085C26.782 20.4206 29.764 13.5797 34.9399 8.59047C40.1158 3.60127 47.0617 0.872545 54.2496 1.00458C61.4374 1.13661 68.2783 4.11859 73.2675 9.29451C78.2567 14.4704 80.9855 21.4163 80.8534 28.6041C80.8534 29.0419 80.8534 29.4625 80.8534 29.9088C83.4433 28.2046 86.4022 27.1424 89.4846 26.8104C92.5671 26.4783 95.6843 26.886 98.5776 27.9995C101.471 29.1131 104.057 30.9004 106.122 33.2133C108.186 35.5262 109.67 38.298 110.449 41.2988C110.879 42.9058 111.098 44.562 111.101 46.2256Z" fill="#F0E7D8" stroke="#5B2684" stroke-width="0.858328" stroke-linecap="round" stroke-linejoin="round"/>
<path d="M39.9798 35.3078C39.9278 35.2225 39.8818 35.1336 39.8425 35.0418C38.5378 32.1492 26.6843 27.6687 26.6843 27.6687C26.8176 23.7689 27.7915 19.9438 29.5396 16.4551C31.2876 12.9664 33.7685 9.89642 36.8125 7.45508C33.302 16.4589 39.9798 34.8615 39.9798 35.3078Z" fill="url(#paint0_linear_352_332)"/>
<path d="M110.5 46C110.494 50.8852 109.497 55.4711 106 59C102.503 62.5289 97.8792 64.7811 92.8272 65H19.5C16.3935 64.9971 14.4095 64.2837 11.6433 62.9181C8.87706 61.5526 6.82252 59.4303 5.00012 57C3.17773 54.5697 2.48104 51.9648 2.00012 49C1.51921 46.0352 2.03466 42.8523 3.00016 40C3.00016 40 12.4415 53.1604 22.9442 52.3761C33.4469 51.5918 37.8088 48.004 42.0064 51.7503C46.2041 55.4966 55.9035 57.5825 63.0292 53.5609C70.1548 49.5392 85.8139 46.886 94.0537 51.8337C100.963 56.0056 107.754 47.6826 110 41.5C110.419 43.0555 110.506 44.3927 110.5 46Z" fill="url(#paint1_linear_352_332)"/>
<defs>
<linearGradient id="paint0_linear_352_332" x1="38.452" y1="31.6341" x2="27.7229" y2="13.6092" gradientUnits="userSpaceOnUse">
<stop offset="0.0648515" stop-color="#C0C4D5"/>
<stop offset="1" stop-color="#F0E7D8"/>
</linearGradient>
<linearGradient id="paint1_linear_352_332" x1="48.8636" y1="80.6776" x2="49.6697" y2="47.3017" gradientUnits="userSpaceOnUse">
<stop stop-color="#8799D0"/>
<stop offset="1" stop-color="#F0E7D8"/>
</linearGradient>
</defs>
</svg>
