<svg width="112" height="67" viewBox="0 0 112 67" fill="none" xmlns="http://www.w3.org/2000/svg">
<path d="M111.101 46.2256C111.095 51.2512 109.152 56.0811 105.677 59.7114C102.202 63.3417 97.4614 65.493 92.4409 65.7182V65.7182H20.6417C17.8095 65.7324 15.0082 65.1308 12.4315 63.9552C9.85484 62.7795 7.5644 61.0579 5.7189 58.9096C3.87341 56.7612 2.51689 54.2374 1.74327 51.5129C0.969643 48.7884 0.797383 45.9283 1.23845 43.1307C1.67952 40.333 2.72338 37.6647 4.29771 35.3103C5.87205 32.956 7.93934 30.972 10.3563 29.4956C12.7733 28.0193 15.4821 27.0859 18.2955 26.76C21.1089 26.4342 23.9595 26.7237 26.65 27.6085C26.782 20.4206 29.764 13.5797 34.9399 8.59047C40.1158 3.60127 47.0617 0.872545 54.2496 1.00458C61.4374 1.13661 68.2783 4.11859 73.2675 9.29451C78.2567 14.4704 80.9855 21.4163 80.8534 28.6041C80.8534 29.0419 80.8534 29.4625 80.8534 29.9088C83.4433 28.2046 86.4022 27.1424 89.4846 26.8104C92.5671 26.4783 95.6842 26.886 98.5776 27.9995C101.471 29.1131 104.057 30.9004 106.122 33.2133C108.186 35.5262 109.67 38.298 110.449 41.2988C110.879 42.9058 111.098 44.562 111.101 46.2256Z" fill="#F0E7D8" stroke="#5B2684" stroke-width="0.858328" stroke-linecap="round" stroke-linejoin="round"/>
<path d="M39.9798 35.3078C39.9278 35.2225 39.8818 35.1336 39.8425 35.0418C38.5378 32.1492 27 28 27 28C27.1332 24.1001 27.7915 19.9438 29.5396 16.4551C31.2876 12.9664 33.7685 9.89642 36.8125 7.45508C33.302 16.4589 39.9798 34.8615 39.9798 35.3078Z" fill="url(#paint0_linear_352_336)"/>
<path d="M110.319 46.5C110.313 51.3905 108.805 56.4673 105.319 60C101.834 63.5327 97.0353 65.2808 92 65.5H20.6966C17.6004 65.4971 14.7865 64.7086 12.0295 63.3415C9.27241 61.9745 6.65051 60.0678 4.83416 57.6349C3.01781 55.202 2.47942 52.1992 2.0001 49.2312C1.52078 46.2633 2.04075 42.3554 3.00305 39.5C3.00305 39.5 12.5874 53.6477 23.0554 52.8625C33.5233 52.0774 37.8706 48.4858 42.0544 52.2361C46.2381 55.9864 55.9054 58.0745 63.0074 54.0486C70.1094 50.0226 85.7167 47.3665 93.9292 52.3196C100.816 56.4959 107.081 47.6893 109.319 41.5C109.737 43.0572 110.325 44.8909 110.319 46.5Z" fill="url(#paint1_linear_352_336)"/>
<defs>
<linearGradient id="paint0_linear_352_336" x1="38.452" y1="31.6341" x2="27.7229" y2="13.6092" gradientUnits="userSpaceOnUse">
<stop offset="0.0648515" stop-color="#C0C4D5"/>
<stop offset="1" stop-color="#F0E7D8"/>
</linearGradient>
<linearGradient id="paint1_linear_352_336" x1="49.0705" y1="80.6945" x2="49.8809" y2="47.2828" gradientUnits="userSpaceOnUse">
<stop stop-color="#8799D0"/>
<stop offset="1" stop-color="#F0E7D8"/>
</linearGradient>
</defs>
</svg>
