<svg width="63" height="38" viewBox="0 0 63 38" fill="none" xmlns="http://www.w3.org/2000/svg">
<path d="M62.2291 25.7922C62.2254 28.5888 61.1446 31.2766 59.2112 33.2972C57.2778 35.3179 54.6404 36.5161 51.8466 36.6432V36.6432H11.8838C8.99921 36.6432 6.23273 35.4972 4.19299 33.4575C2.15325 31.4178 1.00732 28.6513 1.00732 25.7667C1.00732 22.8821 2.15325 20.1156 4.19299 18.0758C6.23273 16.0361 8.99921 14.8902 11.8838 14.8902C13.0263 14.8932 14.1614 15.0742 15.2481 15.4268C15.429 11.5035 17.1321 7.80531 19.9956 5.11748C22.8592 2.42965 26.6577 0.96391 30.5845 1.03154C34.5113 1.09916 38.2571 2.69484 41.0264 5.47969C43.7958 8.26453 45.3705 12.0192 45.4161 15.9463C45.4161 16.1933 45.4161 16.4318 45.4161 16.6703C47.0552 15.5914 48.9561 14.9768 50.9165 14.8918C52.877 14.8068 54.8239 15.2547 56.5502 16.1877C58.2765 17.1208 59.7177 18.5041 60.7206 20.1908C61.7236 21.8774 62.2508 23.8044 62.2461 25.7667L62.2291 25.7922Z" fill="#F0E7D8" stroke="#5B2684" stroke-width="0.851722" stroke-linecap="round" stroke-linejoin="round"/>
<path d="M22.9691 20.0795L22.8925 19.9347C22.1685 18.3249 15.5762 15.8294 15.5762 15.8294C15.6484 13.659 16.1888 11.53 17.1605 9.588C18.1323 7.64602 19.5123 5.93704 21.2061 4.57812C19.2556 9.62884 22.9691 19.8495 22.9691 20.0795Z" fill="url(#paint0_linear_778_29294)"/>
<path d="M61.7178 25.9145C61.7141 28.7111 60.6743 30.84 58.7409 32.8607C56.8075 34.8813 54.5885 35.7105 51.7948 35.8376L12.5988 36.3337C10.8807 36.3308 9.16709 36.1236 7.63732 35.3414C6.10755 34.5592 4.6764 33.2595 3.66811 31.8683C2.65982 30.4772 1.95076 28.6041 1.6835 26.9068C1.41624 25.2096 1.64816 23.579 2.18013 21.9453C2.18013 21.9453 7.37759 29.8642 13.1863 29.4127C18.9951 28.9613 21.4139 26.9087 23.7306 29.055C26.0473 31.2013 31.3961 32.3597 35.3481 30.043C39.3001 27.7263 47.9536 26.1932 52.5103 29.055C56.3346 31.4569 59.9782 26.4808 61.2217 22.9376C61.4577 23.8441 61.722 24.9778 61.7178 25.9145Z" fill="url(#paint1_linear_778_29294)"/>
<defs>
<linearGradient id="paint0_linear_778_29294" x1="19.2726" y1="4.57812" x2="19.2726" y2="20.0795" gradientUnits="userSpaceOnUse">
<stop stop-color="#BEC2D5"/>
<stop offset="1" stop-color="#E8E8E8"/>
</linearGradient>
<linearGradient id="paint1_linear_778_29294" x1="31.4526" y1="25.4184" x2="31.4526" y2="39.8068" gradientUnits="userSpaceOnUse">
<stop stop-color="#C8CBDA"/>
<stop offset="1" stop-color="#E4E4E4" stop-opacity="0"/>
</linearGradient>
</defs>
</svg>
