<svg width="48" height="29" viewBox="0 0 48 29" fill="none" xmlns="http://www.w3.org/2000/svg">
<path d="M47.5132 20.0987C47.5136 22.241 46.6871 24.3008 45.206 25.8487C43.725 27.3967 41.7035 28.3132 39.5633 28.4073H8.9571C6.74833 28.4073 4.63 27.5299 3.06816 25.968C1.50633 24.4062 0.628906 22.2879 0.628906 20.0791C0.628906 17.8703 1.50633 15.752 3.06816 14.1902C4.63 12.6284 6.74833 11.7509 8.9571 11.7509C9.8435 11.7481 10.7245 11.8891 11.5658 12.1683C11.6676 9.13785 12.9564 6.2688 15.1542 4.17987C17.352 2.09095 20.2828 0.949517 23.3146 1.00171C26.3463 1.05391 29.2361 2.29556 31.3607 4.45891C33.4853 6.62226 34.6746 9.53398 34.672 12.5662C34.672 12.7488 34.672 12.9379 34.672 13.1205C35.7759 12.3937 37.0373 11.9407 38.3514 11.7991C39.6655 11.6576 40.9944 11.8316 42.2277 12.3067C43.4611 12.7818 44.5633 13.5443 45.4429 14.5309C46.3224 15.5174 46.954 16.6996 47.285 17.9791C47.4553 18.6723 47.5321 19.3851 47.5132 20.0987V20.0987Z" fill="#F0E7D8" stroke="#5B2684" stroke-width="0.652167" stroke-linecap="round" stroke-linejoin="round"/>
<path d="M17.2006 15.4417C17.1754 15.4056 17.1555 15.3661 17.1418 15.3243C16.5875 14.0917 11.5332 12.1874 11.5332 12.1874C11.5897 10.5251 12.0047 8.89472 12.7499 7.40777C13.495 5.92082 14.5527 4.61246 15.8505 3.57227C14.3571 7.40701 17.2006 15.2526 17.2006 15.4417Z" fill="url(#paint0_linear_778_29290)"/>
<path d="M47.2476 20.2263C47.248 22.3125 46.4309 24.3183 44.9668 25.8256C43.5026 27.3329 41.5043 28.2254 39.3885 28.317H9.1323C7.83084 28.318 6.54768 28.0149 5.3883 27.4324C4.22893 26.85 3.22637 26.0048 2.46302 24.9665C1.69968 23.9282 1.19735 22.7263 0.997236 21.4596C0.797128 20.1928 0.904997 18.8974 1.31196 17.6797C1.31196 17.6797 5.72825 23.2619 10.1252 22.9253C14.5221 22.5888 16.3466 21.0646 18.1066 22.665C19.8667 24.2653 23.909 25.129 26.9005 23.3953C29.8919 21.6615 36.4422 20.5311 39.8914 22.665C42.7862 24.4495 46.042 20.7979 46.9832 18.1623C47.1647 18.8356 47.2536 19.5298 47.2476 20.2263Z" fill="url(#paint1_linear_778_29290)"/>
<defs>
<linearGradient id="paint0_linear_778_29290" x1="17.3245" y1="15.696" x2="12.1071" y2="6.56561" gradientUnits="userSpaceOnUse">
<stop offset="0.0546676" stop-color="#C7C9D6"/>
<stop offset="1" stop-color="#F0E7D8" stop-opacity="0.26"/>
</linearGradient>
<linearGradient id="paint1_linear_778_29290" x1="24.1734" y1="28.006" x2="24.1734" y2="20.7028" gradientUnits="userSpaceOnUse">
<stop stop-color="#C4C6D5"/>
<stop offset="1" stop-color="#F0E7D8"/>
</linearGradient>
</defs>
</svg>
