<svg width="66" height="39" viewBox="0 0 66 39" fill="none" xmlns="http://www.w3.org/2000/svg">
<path d="M65.221 26.976C65.2171 29.9097 64.0834 32.729 62.0552 34.8487C60.0271 36.9683 57.2604 38.2253 54.3298 38.3585H12.4093C9.38339 38.3585 6.48139 37.1565 4.34173 35.0168C2.20207 32.8771 1 29.9752 1 26.9492C1 23.9233 2.20207 21.0213 4.34173 18.8816C6.48139 16.742 9.38339 15.5399 12.4093 15.5399C13.6078 15.543 14.7984 15.7329 15.9384 16.1028C16.1282 11.9873 17.9147 8.10796 20.9185 5.28846C23.9224 2.46895 27.9069 0.93141 32.0261 1.00235C36.1453 1.07329 40.0746 2.74714 42.9796 5.66841C45.8846 8.58967 47.5364 12.5282 47.5843 16.6478C47.5843 16.9069 47.5843 17.157 47.5843 17.4072C49.3037 16.2754 51.2977 15.6307 53.3542 15.5416C55.4107 15.4525 57.4529 15.9223 59.2638 16.901C61.0747 17.8798 62.5865 19.3309 63.6386 21.1002C64.6907 22.8695 65.2437 24.8908 65.2388 26.9492L65.221 26.976Z" fill="#F0E7D8" stroke="#5B2684" stroke-width="0.8" stroke-linecap="round" stroke-linejoin="round"/>
<path d="M24.0377 20.9844L23.9573 20.8325C23.1978 19.1439 16.2826 16.5261 16.2826 16.5261C16.3583 14.2494 16.9252 12.016 17.9445 9.97893C18.9639 7.94182 20.4115 6.14912 22.1883 4.72363C20.1423 10.0218 24.0377 20.7431 24.0377 20.9844Z" fill="url(#paint0_linear_1198_7632)"/>
<path d="M64.6846 27.1045C64.6807 30.0381 63.59 32.2712 61.5619 34.3909C59.5337 36.5105 57.2061 37.3804 54.2755 37.5136L13.1594 38.0341C11.3571 38.031 9.5595 37.8137 7.95479 36.9931C6.35008 36.1726 4.84882 34.8093 3.79113 33.3499C2.73345 31.8906 1.98965 29.9257 1.7093 28.1454C1.42895 26.365 1.67223 24.6545 2.23026 22.9408C2.23026 22.9408 7.68233 31.2476 13.7756 30.774C19.8689 30.3005 22.4063 28.1473 24.8365 30.3988C27.2667 32.6503 32.8775 33.8654 37.0231 31.4352C41.1687 29.005 50.2461 27.3968 55.0261 30.3988C59.0376 32.9183 62.8597 27.6984 64.1642 23.9817C64.4118 24.9327 64.689 26.1218 64.6846 27.1045Z" fill="url(#paint1_linear_1198_7632)"/>
<defs>
<linearGradient id="paint0_linear_1198_7632" x1="20.1601" y1="4.72363" x2="20.1601" y2="20.9844" gradientUnits="userSpaceOnUse">
<stop stop-color="#BEC2D5"/>
<stop offset="1" stop-color="#E8E8E8"/>
</linearGradient>
<linearGradient id="paint1_linear_1198_7632" x1="32.9367" y1="26.584" x2="32.9367" y2="41.6773" gradientUnits="userSpaceOnUse">
<stop stop-color="#C8CBDA"/>
<stop offset="1" stop-color="#E4E4E4" stop-opacity="0"/>
</linearGradient>
</defs>
</svg>
