<svg width="50" height="30" viewBox="0 0 50 30" fill="none" xmlns="http://www.w3.org/2000/svg">
<path d="M48.9866 20.4096C48.9837 22.6016 48.1366 24.7083 46.6212 26.2921C45.1057 27.8759 43.0384 28.8152 40.8487 28.9147H9.52518C7.26417 28.9147 5.09576 28.0165 3.49698 26.4177C1.8982 24.819 1 22.6506 1 20.3896C1 18.1285 1.8982 15.9601 3.49698 14.3614C5.09576 12.7626 7.26417 11.8644 9.52518 11.8644C10.4207 11.8667 11.3104 12.0086 12.1622 12.285C12.3039 9.20987 13.6388 6.31115 15.8833 4.20438C18.1278 2.09762 21.1052 0.948749 24.1831 1.00176C27.261 1.05476 30.197 2.30548 32.3676 4.48829C34.5383 6.67109 35.7725 9.61403 35.8083 12.6922C35.8083 12.8858 35.8083 13.0727 35.8083 13.2596C37.0931 12.414 38.583 11.9323 40.1196 11.8657C41.6563 11.7991 43.1823 12.1501 44.5354 12.8814C45.8885 13.6128 47.0181 14.6971 47.8043 16.0191C48.5904 17.3411 49.0036 18.8515 49 20.3896L48.9866 20.4096Z" fill="#F0E7D8" stroke="#5B2684" stroke-width="0.667594" stroke-linecap="round" stroke-linejoin="round"/>
<path d="M18.2136 15.9318L18.1535 15.8183C17.5861 14.5566 12.4189 12.6005 12.4189 12.6005C12.4755 10.8994 12.8991 9.23059 13.6607 7.70844C14.4224 6.18628 15.5041 4.84676 16.8317 3.78162C15.3029 7.74045 18.2136 15.7516 18.2136 15.9318Z" fill="url(#paint0_linear_1198_7620)"/>
<path d="M48.5856 20.5054C48.5827 22.6975 47.7677 24.3661 46.2522 25.9499C44.7368 27.5337 42.9975 28.1837 40.8077 28.2833L10.0853 28.6721C8.73861 28.6699 7.39546 28.5075 6.1964 27.8944C4.99734 27.2813 3.87558 26.2625 3.08527 25.1721C2.29495 24.0817 1.73918 22.6135 1.5297 21.2832C1.32022 19.9529 1.502 18.6748 1.91897 17.3943C1.91897 17.3943 5.99282 23.6012 10.5458 23.2474C15.0988 22.8936 16.9947 21.2846 18.8106 22.967C20.6265 24.6493 24.8189 25.5572 27.9166 23.7414C31.0142 21.9255 37.797 20.7239 41.3686 22.967C44.3661 24.8496 47.222 20.9493 48.1967 18.1721C48.3817 18.8826 48.5889 19.7712 48.5856 20.5054Z" fill="url(#paint1_linear_1198_7620)"/>
<defs>
<linearGradient id="paint0_linear_1198_7620" x1="15.3162" y1="3.78162" x2="15.3162" y2="15.9318" gradientUnits="userSpaceOnUse">
<stop stop-color="#BEC2D5"/>
<stop offset="1" stop-color="#E8E8E8"/>
</linearGradient>
<linearGradient id="paint1_linear_1198_7620" x1="24.8632" y1="20.1165" x2="24.8632" y2="31.3944" gradientUnits="userSpaceOnUse">
<stop stop-color="#C8CBDA"/>
<stop offset="1" stop-color="#E4E4E4" stop-opacity="0"/>
</linearGradient>
</defs>
</svg>
