<svg width="43" height="26" viewBox="0 0 43 26" fill="none" xmlns="http://www.w3.org/2000/svg">
<path d="M42.1814 17.9159C42.1792 19.7956 41.4526 21.6021 40.1527 22.96C38.8529 24.3178 37.0798 25.1225 35.2019 25.2068V25.2068H8.34664C7.28732 25.212 6.23952 24.987 5.27576 24.5473C4.312 24.1076 3.4553 23.4636 2.76503 22.6601C2.07475 21.8565 1.56737 20.9125 1.27801 19.8935C0.988645 18.8744 0.924214 17.8047 1.08919 16.7583C1.25416 15.7119 1.6446 14.7138 2.23345 13.8332C2.82231 12.9526 3.59554 12.2105 4.49957 11.6583C5.40359 11.1061 6.4168 10.757 7.4691 10.6351C8.5214 10.5132 9.58763 10.6215 10.5939 10.9524C10.6433 8.26396 11.7587 5.70521 13.6946 3.83909C15.6306 1.97296 18.2286 0.952328 20.9171 1.00171C23.6056 1.0511 26.1643 2.16645 28.0304 4.10242C29.8966 6.03838 30.9172 8.63637 30.8678 11.3249C30.8678 11.4886 30.8678 11.6459 30.8678 11.8128C31.8365 11.1754 32.9432 10.7781 34.0962 10.6539C35.2491 10.5297 36.415 10.6822 37.4973 11.0987C38.5795 11.5152 39.5468 12.1838 40.319 13.0489C41.0912 13.914 41.646 14.9507 41.9374 16.0731C42.0983 16.6742 42.1803 17.2936 42.1814 17.9159Z" fill="#F0E7D8" stroke="#5B2684" stroke-width="0.321043" stroke-linecap="round" stroke-linejoin="round"/>
<path d="M15.5806 13.8335C15.5611 13.8016 15.544 13.7683 15.5292 13.734C15.0413 12.6521 10.7257 11.1001 10.7257 11.1001C10.7756 9.64146 11.0218 8.08684 11.6756 6.78196C12.3295 5.47707 13.2574 4.32879 14.396 3.41565C13.0829 6.78339 15.5806 13.6666 15.5806 13.8335Z" fill="url(#paint0_linear_825_6594)"/>
<path d="M41.889 18.0191C41.8867 19.8483 41.3225 21.7472 40.0188 23.0686C38.7151 24.3899 36.9204 25.0438 35.037 25.1257H8.3672C7.20911 25.1247 6.15663 24.8297 5.1254 24.3184C4.09416 23.8071 3.11349 23.0939 2.43411 22.1839C1.75473 21.2739 1.55336 20.1508 1.37408 19.0407C1.1948 17.9306 1.38928 16.4689 1.74921 15.4009C1.74921 15.4009 5.33408 20.6926 9.24944 20.3989C13.1648 20.1052 14.7908 18.7618 16.3557 20.1646C17.9206 21.5673 21.5365 22.3484 24.1928 20.8425C26.8492 19.3367 32.6869 18.3432 35.7586 20.1958C38.3345 21.7579 40.6778 18.4639 41.5149 16.1489C41.6711 16.7314 41.8912 17.4173 41.889 18.0191Z" fill="url(#paint1_linear_825_6594)"/>
<defs>
<linearGradient id="paint0_linear_825_6594" x1="15.0092" y1="12.4594" x2="10.9961" y2="5.71751" gradientUnits="userSpaceOnUse">
<stop offset="0.0648515" stop-color="#C0C4D5"/>
<stop offset="1" stop-color="#F0E7D8"/>
</linearGradient>
<linearGradient id="paint1_linear_825_6594" x1="18.9799" y1="30.809" x2="19.2831" y2="18.3119" gradientUnits="userSpaceOnUse">
<stop stop-color="#8799D0"/>
<stop offset="1" stop-color="#F0E7D8"/>
</linearGradient>
</defs>
</svg>
