<svg width="63" height="38" viewBox="0 0 63 38" fill="none" xmlns="http://www.w3.org/2000/svg">
<path d="M62.2218 25.7629C62.2181 28.5596 61.1373 31.2473 59.2039 33.2679C57.2705 35.2886 54.633 36.4868 51.8393 36.6139V36.6139H11.8765C8.99188 36.6139 6.2254 35.4679 4.18567 33.4282C2.14593 31.3885 1 28.622 1 25.7374C1 22.8528 2.14593 20.0863 4.18567 18.0465C6.2254 16.0068 8.99188 14.8609 11.8765 14.8609C13.019 14.8639 14.154 15.0449 15.2408 15.3975C15.4217 11.4742 17.1247 7.77602 19.9883 5.08818C22.8519 2.40035 26.6504 0.934613 30.5772 1.00224C34.504 1.06987 38.2498 2.66555 41.0191 5.45039C43.7884 8.23523 45.3631 11.9899 45.4088 15.917C45.4088 16.164 45.4088 16.4025 45.4088 16.641C47.0479 15.5621 48.9487 14.9475 50.9092 14.8625C52.8697 14.7775 54.8165 15.2254 56.5428 16.1584C58.2692 17.0915 59.7104 18.4748 60.7133 20.1615C61.7163 21.8481 62.2434 23.7751 62.2388 25.7374L62.2218 25.7629Z" fill="#F0E7D8" stroke="#5B2684" stroke-width="0.851722" stroke-linecap="round" stroke-linejoin="round"/>
<path d="M22.9617 20.051L22.8851 19.9062C22.1611 18.2965 15.5688 15.8009 15.5688 15.8009C15.6409 13.6306 16.1814 11.5015 17.1531 9.55956C18.1249 7.61758 19.5049 5.9086 21.1987 4.54968C19.2482 9.6004 22.9617 19.821 22.9617 20.051Z" fill="url(#paint0_linear_825_6590)"/>
<path d="M61.7104 25.8854C61.7067 28.682 60.6669 30.8108 58.7335 32.8315C56.8001 34.8521 54.5811 35.6814 51.7874 35.8084L12.5914 36.3045C10.8733 36.3016 9.15969 36.0944 7.62992 35.3122C6.10015 34.53 4.66899 33.2303 3.6607 31.8392C2.65241 30.448 1.94335 28.5749 1.6761 26.8777C1.40884 25.1804 1.64075 23.5499 2.17272 21.9161C2.17272 21.9161 7.37018 29.835 13.1789 29.3836C18.9877 28.9322 21.4065 26.8795 23.7232 29.0258C26.0399 31.1722 31.3887 32.3305 35.3407 30.0138C39.2927 27.6971 47.9462 26.164 52.5029 29.0258C56.3272 31.4277 59.9707 26.4516 61.2143 22.9084C61.4503 23.815 61.7146 24.9486 61.7104 25.8854Z" fill="url(#paint1_linear_825_6590)"/>
<defs>
<linearGradient id="paint0_linear_825_6590" x1="19.2652" y1="4.54968" x2="19.2652" y2="20.051" gradientUnits="userSpaceOnUse">
<stop stop-color="#BEC2D5"/>
<stop offset="1" stop-color="#E8E8E8"/>
</linearGradient>
<linearGradient id="paint1_linear_825_6590" x1="31.4452" y1="25.3892" x2="31.4452" y2="39.7776" gradientUnits="userSpaceOnUse">
<stop stop-color="#C8CBDA"/>
<stop offset="1" stop-color="#E4E4E4" stop-opacity="0"/>
</linearGradient>
</defs>
</svg>
