<svg width="58" height="35" viewBox="0 0 58 35" fill="none" xmlns="http://www.w3.org/2000/svg">
<path d="M57 24.0028C56.9969 26.5589 56.0089 29.0156 54.2413 30.862C52.4737 32.7085 50.0626 33.8027 47.509 33.9172V33.9172H10.9902C9.54972 33.9244 8.1249 33.6185 6.81434 33.0205C5.50378 32.4225 4.33881 31.5469 3.40015 30.4542C2.46148 29.3615 1.77153 28.0778 1.37804 26.6921C0.984559 25.3063 0.896944 23.8516 1.12128 22.4287C1.34562 21.0057 1.87655 19.6485 2.6773 18.4511C3.47804 17.2536 4.52952 16.2445 5.75884 15.4936C6.98817 14.7426 8.36596 14.2679 9.79692 14.1021C11.2279 13.9364 12.6778 14.0837 14.0462 14.5337C14.1134 10.8778 15.63 7.39832 18.2626 4.86069C20.8952 2.32307 24.4281 0.935173 28.084 1.00233C31.7399 1.06948 35.2194 2.58619 37.757 5.21878C40.2946 7.85138 41.6825 11.3842 41.6154 15.0401C41.6154 15.2628 41.6154 15.4767 41.6154 15.7037C42.9326 14.8369 44.4376 14.2966 46.0054 14.1278C47.5732 13.9589 49.1587 14.1662 50.6303 14.7326C52.102 15.299 53.4174 16.2081 54.4674 17.3845C55.5175 18.5609 56.2719 19.9707 56.6682 21.4969C56.887 22.3143 56.9985 23.1567 57 24.0028Z" fill="#F0E7D8" stroke="#5B2684" stroke-width="0.436566" stroke-linecap="round" stroke-linejoin="round"/>
<path d="M20.8273 18.4507C20.8009 18.4073 20.7775 18.3621 20.7575 18.3154C20.0939 16.8441 14.2255 14.7338 14.2255 14.7338C14.2933 12.7502 14.6281 10.6362 15.5172 8.86175C16.4063 7.08732 17.6681 5.52584 19.2164 4.28412C17.4308 8.8637 20.8273 18.2237 20.8273 18.4507Z" fill="url(#paint0_linear_825_6586)"/>
<path d="M56.6024 24.1412C56.5994 26.6287 55.8321 29.2108 54.0593 31.0077C52.2865 32.8045 49.846 33.6936 47.2849 33.8051H11.0183C9.44351 33.8036 8.01231 33.4026 6.61 32.7073C5.20768 32.0119 3.87412 31.0422 2.95028 29.8047C2.02644 28.5673 1.75261 27.04 1.50881 25.5304C1.26502 24.0208 1.52949 22.0332 2.01894 20.5809C2.01894 20.5809 6.89377 27.7767 12.218 27.3774C17.5423 26.978 19.7534 25.1512 21.8814 27.0587C24.0093 28.9662 28.9263 30.0283 32.5386 27.9806C36.1509 25.9329 44.0891 24.582 48.2662 27.1012C51.7689 29.2254 54.9554 24.7461 56.0938 21.5981C56.3062 22.3902 56.6055 23.3228 56.6024 24.1412Z" fill="url(#paint1_linear_825_6586)"/>
<defs>
<linearGradient id="paint0_linear_825_6586" x1="20.0502" y1="16.5822" x2="14.5932" y2="7.41427" gradientUnits="userSpaceOnUse">
<stop offset="0.0648515" stop-color="#C0C4D5"/>
<stop offset="1" stop-color="#F0E7D8"/>
</linearGradient>
<linearGradient id="paint1_linear_825_6586" x1="25.4499" y1="41.5334" x2="25.8621" y2="24.5394" gradientUnits="userSpaceOnUse">
<stop stop-color="#8799D0"/>
<stop offset="1" stop-color="#F0E7D8"/>
</linearGradient>
</defs>
</svg>
