<svg width="70" height="42" viewBox="0 0 70 42" fill="none" xmlns="http://www.w3.org/2000/svg">
<path d="M69.1663 29.2184C69.1626 32.3272 67.9609 35.315 65.8112 37.5606C63.6614 39.8063 60.729 41.1371 57.6233 41.2765V41.2765H13.2088C11.4568 41.2852 9.72396 40.9131 8.13005 40.1858C6.53614 39.4586 5.11929 38.3936 3.97767 37.0646C2.83606 35.7357 1.99693 34.1745 1.51837 32.4891C1.03981 30.8038 0.933256 29.0345 1.2061 27.3039C1.47894 25.5733 2.12466 23.9227 3.09854 22.4663C4.07241 21.01 5.35122 19.7827 6.84634 18.8694C8.34146 17.9561 10.0171 17.3787 11.7575 17.1771C13.4978 16.9756 15.2612 17.1547 16.9255 17.702C17.0072 13.2557 18.8518 9.02388 22.0536 5.9376C25.2554 2.85132 29.5521 1.16334 33.9984 1.24502C38.4448 1.32669 42.6765 3.17132 45.7628 6.37311C48.8491 9.5749 50.5371 13.8716 50.4554 18.3179C50.4554 18.5887 50.4554 18.8489 50.4554 19.125C52.0575 18.0708 53.8878 17.4137 55.7946 17.2083C57.7014 17.0029 59.6296 17.2551 61.4195 17.9439C63.2093 18.6328 64.8091 19.7384 66.0862 21.1691C67.3633 22.5999 68.2808 24.3145 68.7628 26.1708C69.0288 27.1649 69.1645 28.1893 69.1663 29.2184Z" fill="#F0E7D8" stroke="#5B2684" stroke-width="0.530956" stroke-linecap="round" stroke-linejoin="round"/>
<path d="M25.1725 22.4659C25.1403 22.4131 25.1119 22.3581 25.0876 22.3013C24.2805 20.5119 17.1433 17.9453 17.1433 17.9453C17.2257 15.5329 17.633 12.9618 18.7143 10.8037C19.7956 8.64561 21.3302 6.74653 23.2133 5.23633C21.0417 10.8061 25.1725 22.1898 25.1725 22.4659Z" fill="url(#paint0_linear_778_29302)"/>
<path d="M68.6828 29.3868C68.6791 32.412 67.7459 35.5525 65.5898 37.7378C63.4338 39.9231 60.4655 41.0045 57.3507 41.1401H13.2429C11.3277 41.1383 9.58701 40.6505 7.88151 39.8049C6.176 38.9592 4.55411 37.7797 3.43053 36.2748C2.30695 34.7698 1.9739 32.9123 1.6774 31.0763C1.3809 29.2404 1.70255 26.823 2.29782 25.0566C2.29782 25.0566 8.22664 33.8083 14.702 33.3226C21.1774 32.8369 23.8667 30.6152 26.4547 32.9351C29.0427 35.255 35.0229 36.5467 39.4161 34.0563C43.8094 31.5659 53.4639 29.9228 58.5441 32.9868C62.8043 35.5702 66.6797 30.1225 68.0642 26.2938C68.3225 27.2571 68.6866 28.3914 68.6828 29.3868Z" fill="url(#paint1_linear_778_29302)"/>
<defs>
<linearGradient id="paint0_linear_778_29302" x1="24.2274" y1="20.1933" x2="17.5905" y2="9.04324" gradientUnits="userSpaceOnUse">
<stop offset="0.0648515" stop-color="#C0C4D5"/>
<stop offset="1" stop-color="#F0E7D8"/>
</linearGradient>
<linearGradient id="paint1_linear_778_29302" x1="30.7948" y1="50.5393" x2="31.2962" y2="29.871" gradientUnits="userSpaceOnUse">
<stop stop-color="#8799D0"/>
<stop offset="1" stop-color="#F0E7D8"/>
</linearGradient>
</defs>
</svg>
