<svg width="43" height="26" viewBox="0 0 43 26" fill="none" xmlns="http://www.w3.org/2000/svg">
<path d="M42.1594 17.9159C42.1572 19.7956 41.4306 21.6021 40.1308 22.96C38.8309 24.3178 37.0578 25.1225 35.1799 25.2068V25.2068H8.32467C7.26534 25.212 6.21755 24.987 5.25379 24.5473C4.29003 24.1076 3.43333 23.4636 2.74305 22.6601C2.05278 21.8565 1.54539 20.9125 1.25603 19.8935C0.966673 18.8744 0.902242 17.8047 1.06722 16.7583C1.23219 15.7119 1.62263 14.7138 2.21148 13.8332C2.80034 12.9526 3.57357 12.2105 4.4776 11.6583C5.38162 11.1061 6.39483 10.757 7.44713 10.6351C8.49943 10.5132 9.56566 10.6215 10.572 10.9524C10.6214 8.26396 11.7367 5.70521 13.6727 3.83909C15.6086 1.97296 18.2066 0.952328 20.8951 1.00171C23.5836 1.0511 26.1423 2.16645 28.0085 4.10242C29.8746 6.03838 30.8952 8.63637 30.8459 11.3249C30.8459 11.4886 30.8459 11.6459 30.8459 11.8128C31.8146 11.1754 32.9213 10.7781 34.0742 10.6539C35.2271 10.5297 36.3931 10.6822 37.4753 11.0987C38.5575 11.5152 39.5248 12.1838 40.297 13.0489C41.0692 13.914 41.624 14.9507 41.9154 16.0731C42.0763 16.6742 42.1583 17.2936 42.1594 17.9159Z" fill="#F0E7D8" stroke="#5B2684" stroke-width="0.321043" stroke-linecap="round" stroke-linejoin="round"/>
<path d="M15.5587 13.8339C15.5393 13.802 15.5221 13.7687 15.5074 13.7343C15.0194 12.6524 10.7039 11.1005 10.7039 11.1005C10.7537 9.64182 10.9999 8.08721 11.6537 6.78232C12.3076 5.47744 13.2355 4.32916 14.3741 3.41602C13.061 6.78376 15.5587 13.6669 15.5587 13.8339Z" fill="url(#paint0_linear_778_29298)"/>
<path d="M41.867 18.0186C41.8648 19.8478 41.3005 21.7467 39.9968 23.0681C38.6932 24.3894 36.8984 25.0433 35.0151 25.1253H8.34525C7.18716 25.1242 6.13468 24.8292 5.10345 24.3179C4.07221 23.8066 3.09154 23.0934 2.41216 22.1834C1.73278 21.2734 1.53141 20.1503 1.35213 19.0402C1.17285 17.9301 1.36733 16.4684 1.72726 15.4004C1.72726 15.4004 5.31213 20.6921 9.22749 20.3984C13.1428 20.1047 14.7689 18.7614 16.3337 20.1641C17.8986 21.5668 21.5145 22.3479 24.1709 20.842C26.8273 19.3362 32.6649 18.3427 35.7367 20.1953C38.3125 21.7574 40.6558 18.4635 41.493 16.1485C41.6492 16.7309 41.8693 17.4168 41.867 18.0186Z" fill="url(#paint1_linear_778_29298)"/>
<defs>
<linearGradient id="paint0_linear_778_29298" x1="14.9873" y1="12.4598" x2="10.9742" y2="5.71787" gradientUnits="userSpaceOnUse">
<stop offset="0.0648515" stop-color="#C0C4D5"/>
<stop offset="1" stop-color="#F0E7D8"/>
</linearGradient>
<linearGradient id="paint1_linear_778_29298" x1="18.958" y1="30.8085" x2="19.2611" y2="18.3114" gradientUnits="userSpaceOnUse">
<stop stop-color="#8799D0"/>
<stop offset="1" stop-color="#F0E7D8"/>
</linearGradient>
</defs>
</svg>
