<svg width="1792" height="210" viewBox="0 0 1792 210" fill="none" xmlns="http://www.w3.org/2000/svg">
<g clip-path="url(#clip0_352_344)">
<path d="M38.8663 148.735C38.8613 152.929 37.2405 156.959 34.3408 159.988C31.4412 163.017 27.4857 164.812 23.2967 165H-36.6113C-38.9744 165.012 -41.3118 164.51 -43.4617 163.529C-45.6117 162.548 -47.5228 161.111 -49.0626 159.319C-50.6025 157.526 -51.7343 155.42 -52.3798 153.147C-53.0253 150.874 -53.1691 148.487 -52.801 146.153C-52.433 143.819 -51.562 141.592 -50.2484 139.628C-48.9348 137.664 -47.2099 136.008 -45.1933 134.776C-43.1766 133.544 -40.9164 132.766 -38.5689 132.494C-36.2215 132.222 -33.8429 132.463 -31.5981 133.202C-31.4879 127.204 -28.9998 121.496 -24.6811 117.333C-20.3624 113.17 -14.5669 110.894 -8.56948 111.004C-2.57209 111.114 3.13588 113.602 7.29878 117.921C11.4617 122.239 13.7385 128.035 13.6283 134.032C13.6283 134.398 13.6283 134.749 13.6283 135.121C15.7893 133.699 18.2581 132.813 20.83 132.536C23.402 132.259 26.0029 132.599 28.4171 133.528C30.8313 134.457 32.9892 135.948 34.7118 137.878C36.4344 139.808 37.672 142.121 38.322 144.625C38.6809 145.966 38.8639 147.347 38.8663 148.735Z" fill="#F0E7D8" stroke="#5B2684" stroke-width="0.716175" stroke-linecap="round" stroke-linejoin="round"/>
<path d="M38.3649 148.547C38.3599 152.623 37.528 156.45 34.6102 159.394C31.6923 162.339 27.8344 164.218 23.6191 164.401H-37.5639C-40.156 164.398 -41.8113 163.803 -44.1194 162.664C-46.4275 161.524 -48.1418 159.753 -49.6623 157.726C-51.1829 155.698 -51.7642 153.524 -52.1655 151.05C-52.5668 148.577 -52.1367 145.921 -51.3311 143.541C-51.3311 143.541 -43.4534 154.522 -34.6901 153.867C-25.9268 153.213 -22.2874 150.219 -18.7849 153.345C-15.2825 156.471 -7.18941 158.212 -1.2439 154.856C4.7016 151.5 17.7673 149.287 24.6425 153.415C30.4078 156.896 36.074 149.951 37.9477 144.793C38.2973 146.091 38.37 147.206 38.3649 148.547Z" fill="url(#paint0_linear_352_344)"/>
<path d="M1845.87 33.5426C1845.86 37.27 1844.42 40.8522 1841.84 43.5447C1839.27 46.2372 1835.75 47.8328 1832.03 47.9998H1778.78C1776.67 48.0103 1774.6 47.5641 1772.69 46.6922C1770.77 45.8203 1769.08 44.5434 1767.71 42.95C1766.34 41.3566 1765.33 39.4848 1764.76 37.4641C1764.19 35.4434 1764.06 33.3221 1764.38 31.2472C1764.71 29.1723 1765.49 27.1932 1766.65 25.4471C1767.82 23.7009 1769.35 22.2294 1771.15 21.1345C1772.94 20.0395 1774.95 19.3472 1777.04 19.1055C1779.12 18.8638 1781.24 19.0786 1783.23 19.7348C1783.33 14.4038 1785.54 9.33001 1789.38 5.62965C1793.22 1.92929 1798.37 -0.0945301 1803.7 0.00339516C1809.03 0.10132 1814.11 2.31297 1817.81 6.15182C1821.51 9.99066 1823.53 15.1422 1823.43 20.4733C1823.43 20.7979 1823.43 21.1099 1823.43 21.4409C1825.35 20.1769 1827.55 19.3891 1829.83 19.1429C1832.12 18.8966 1834.43 19.199 1836.58 20.0248C1838.72 20.8507 1840.64 22.1764 1842.17 23.8918C1843.7 25.6072 1844.8 27.663 1845.38 29.8886C1845.7 31.0805 1845.86 32.3088 1845.87 33.5426Z" fill="#F0E7D8" stroke="#5B2684" stroke-width="0.6366" stroke-linecap="round" stroke-linejoin="round"/>
<path d="M1793.12 25.4453C1793.08 25.382 1793.05 25.316 1793.02 25.2479C1792.05 23.1026 1783.26 19.7795 1783.26 19.7795C1783.36 16.8871 1784.08 14.0501 1785.37 11.4627C1786.67 8.87521 1788.51 6.59828 1790.77 4.7876C1788.16 11.4655 1793.12 25.1142 1793.12 25.4453Z" fill="url(#paint1_linear_352_344)"/>
<path d="M1845.42 33.3753C1845.42 36.9986 1844.68 40.3998 1842.08 43.0171C1839.49 45.6344 1836.06 47.3048 1832.31 47.4671H1777.93C1775.62 47.465 1774.15 46.9359 1772.1 45.9231C1770.05 44.9103 1768.53 43.3362 1767.17 41.5337C1765.82 39.7312 1765.31 37.7992 1764.95 35.6004C1764.59 33.4015 1764.97 31.0408 1765.69 28.9253C1765.69 28.9253 1772.69 38.686 1780.48 38.1043C1788.27 37.5226 1791.51 34.8617 1794.62 37.6402C1797.73 40.4187 1804.93 41.9658 1810.21 38.983C1815.5 36.0003 1827.11 34.0324 1833.22 37.7021C1838.35 40.7962 1843.38 34.6233 1845.05 30.0378C1845.36 31.1915 1845.43 32.1832 1845.42 33.3753Z" fill="url(#paint2_linear_352_344)"/>
<path d="M428.697 198.955C428.693 201.773 427.604 204.482 425.655 206.518C423.707 208.555 421.049 209.762 418.234 209.89V209.89H377.961C375.054 209.89 372.266 208.735 370.21 206.68C368.155 204.624 367 201.836 367 198.929C367 196.022 368.155 193.234 370.21 191.179C372.266 189.123 375.054 187.968 377.961 187.968C379.112 187.971 380.256 188.154 381.351 188.509C381.534 184.555 383.25 180.829 386.136 178.12C389.021 175.411 392.849 173.934 396.807 174.002C400.764 174.07 404.539 175.678 407.33 178.485C410.12 181.291 411.707 185.075 411.753 189.033C411.753 189.282 411.753 189.522 411.753 189.762C413.405 188.675 415.321 188.056 417.296 187.97C419.272 187.884 421.234 188.336 422.974 189.276C424.713 190.216 426.166 191.61 427.176 193.31C428.187 195.01 428.718 196.952 428.714 198.929L428.697 198.955Z" fill="#F0E7D8" stroke="#5B2684" stroke-width="0.858328" stroke-linecap="round" stroke-linejoin="round"/>
<path d="M389.132 193.199L389.055 193.053C388.326 191.431 381.682 188.916 381.682 188.916C381.755 186.729 382.3 184.583 383.279 182.626C384.258 180.669 385.649 178.947 387.356 177.578C385.39 182.668 389.132 192.967 389.132 193.199Z" fill="url(#paint3_linear_352_344)"/>
<path d="M428.182 199.078C428.178 201.896 427.131 204.041 425.182 206.078C423.234 208.114 420.998 208.95 418.182 209.078L378.682 209.578C376.951 209.575 375.224 209.366 373.682 208.578C372.141 207.789 370.698 206.48 369.682 205.078C368.666 203.676 367.952 201.788 367.682 200.078C367.413 198.367 367.647 196.724 368.183 195.078C368.183 195.078 373.42 203.058 379.274 202.603C385.128 202.148 387.566 200.079 389.9 202.242C392.235 204.405 397.625 205.573 401.608 203.238C405.591 200.903 414.311 199.358 418.903 202.242C422.757 204.663 426.429 199.648 427.682 196.078C427.92 196.991 428.186 198.134 428.182 199.078Z" fill="url(#paint4_linear_352_344)"/>
<path d="M1375.71 114.136C1375.71 116.956 1374.62 119.667 1372.67 121.704C1370.72 123.741 1368.06 124.947 1365.24 125.071H1324.96C1322.05 125.071 1319.27 123.916 1317.21 121.861C1315.15 119.805 1314 117.017 1314 114.11C1314 111.203 1315.15 108.415 1317.21 106.36C1319.27 104.304 1322.05 103.15 1324.96 103.15C1326.13 103.146 1327.29 103.331 1328.39 103.699C1328.53 99.7104 1330.22 95.9344 1333.12 93.1851C1336.01 90.4358 1339.87 88.9336 1343.86 89.0023C1347.85 89.071 1351.65 90.7051 1354.45 93.5523C1357.24 96.3996 1358.81 100.232 1358.8 104.222C1358.8 104.463 1358.8 104.712 1358.8 104.952C1360.26 103.995 1361.92 103.399 1363.65 103.213C1365.38 103.027 1367.13 103.256 1368.75 103.881C1370.37 104.506 1371.82 105.51 1372.98 106.808C1374.14 108.107 1374.97 109.662 1375.4 111.347C1375.63 112.259 1375.73 113.197 1375.71 114.136V114.136Z" fill="#F0E7D8" stroke="#5B2684" stroke-width="0.858328" stroke-linecap="round" stroke-linejoin="round"/>
<path d="M1335.81 108.008C1335.78 107.96 1335.75 107.908 1335.73 107.853C1335 106.231 1328.35 103.725 1328.35 103.725C1328.43 101.537 1328.97 99.3912 1329.95 97.4342C1330.93 95.4772 1332.33 93.7552 1334.03 92.3862C1332.07 97.4332 1335.81 107.759 1335.81 108.008Z" fill="url(#paint5_linear_352_344)"/>
<path d="M1375.36 114.305C1375.36 117.05 1374.28 119.69 1372.35 121.674C1370.43 123.658 1367.8 124.833 1365.01 124.953H1325.19C1323.48 124.954 1321.79 124.555 1320.26 123.789C1318.74 123.022 1317.42 121.91 1316.41 120.543C1315.41 119.177 1314.75 117.595 1314.49 115.928C1314.22 114.261 1314.36 112.556 1314.9 110.953C1314.9 110.953 1320.71 118.3 1326.5 117.857C1332.29 117.414 1334.69 115.408 1337 117.514C1339.32 119.621 1344.64 120.757 1348.58 118.476C1352.51 116.194 1361.14 114.706 1365.67 117.514C1369.48 119.863 1373.77 115.057 1375.01 111.588C1375.25 112.474 1375.36 113.388 1375.36 114.305Z" fill="url(#paint6_linear_352_344)"/>
</g>
<defs>
<linearGradient id="paint0_linear_352_344" x1="-13.0634" y1="177.482" x2="-12.3908" y2="149.633" gradientUnits="userSpaceOnUse">
<stop stop-color="#8799D0"/>
<stop offset="1" stop-color="#F0E7D8"/>
</linearGradient>
<linearGradient id="paint1_linear_352_344" x1="1791.98" y1="22.7206" x2="1784.03" y2="9.35197" gradientUnits="userSpaceOnUse">
<stop offset="0.0648515" stop-color="#C0C4D5"/>
<stop offset="1" stop-color="#F0E7D8"/>
</linearGradient>
<linearGradient id="paint2_linear_352_344" x1="1799.71" y1="59.0948" x2="1800.3" y2="34.3408" gradientUnits="userSpaceOnUse">
<stop stop-color="#8799D0"/>
<stop offset="1" stop-color="#F0E7D8"/>
</linearGradient>
<linearGradient id="paint3_linear_352_344" x1="385.407" y1="177.578" x2="385.407" y2="193.199" gradientUnits="userSpaceOnUse">
<stop stop-color="#BEC2D5"/>
<stop offset="1" stop-color="#E8E8E8"/>
</linearGradient>
<linearGradient id="paint4_linear_352_344" x1="397.682" y1="198.578" x2="397.682" y2="213.078" gradientUnits="userSpaceOnUse">
<stop stop-color="#C8CBDA"/>
<stop offset="1" stop-color="#E4E4E4" stop-opacity="0"/>
</linearGradient>
<linearGradient id="paint5_linear_352_344" x1="1335.97" y1="108.342" x2="1329.11" y2="96.3258" gradientUnits="userSpaceOnUse">
<stop offset="0.0546676" stop-color="#C7C9D6"/>
<stop offset="1" stop-color="#F0E7D8" stop-opacity="0.26"/>
</linearGradient>
<linearGradient id="paint6_linear_352_344" x1="1344.99" y1="124.544" x2="1344.99" y2="114.932" gradientUnits="userSpaceOnUse">
<stop stop-color="#C4C6D5"/>
<stop offset="1" stop-color="#F0E7D8"/>
</linearGradient>
<clipPath id="clip0_352_344">
<rect width="1792" height="210" fill="white"/>
</clipPath>
</defs>
</svg>
