<svg width="44" height="26" viewBox="0 0 44 26" fill="none" xmlns="http://www.w3.org/2000/svg">
<path d="M42.9975 18.108C42.9978 20.027 42.2575 21.8722 40.9308 23.2587C39.6041 24.6453 37.7934 25.4663 35.8762 25.5506H8.46013C6.48158 25.5506 4.58406 24.7646 3.18501 23.3656C1.78597 21.9665 1 20.069 1 18.0905C1 16.1119 1.78597 14.2144 3.18501 12.8154C4.58406 11.4163 6.48158 10.6304 8.46013 10.6304C9.25414 10.6278 10.0433 10.7541 10.7969 11.0042C10.8881 8.28963 12.0425 5.71963 14.0113 3.84843C15.9801 1.97724 18.6054 0.954779 21.3211 1.00154C24.0368 1.04829 26.6254 2.16052 28.5286 4.09838C30.4318 6.03624 31.497 8.64447 31.4947 11.3606C31.4947 11.5242 31.4947 11.6936 31.4947 11.8571C32.4836 11.2061 33.6135 10.8003 34.7907 10.6735C35.9678 10.5467 37.1581 10.7026 38.2629 11.1282C39.3677 11.5538 40.3551 12.2368 41.143 13.1205C41.9308 14.0042 42.4965 15.0632 42.793 16.2094C42.9456 16.8303 43.0144 17.4688 42.9975 18.108Z" fill="#F0E7D8" stroke="#5B2684" stroke-width="0.584191" stroke-linecap="round" stroke-linejoin="round"/>
<path d="M15.8441 13.9363C15.8215 13.904 15.8037 13.8686 15.7915 13.8312C15.2949 12.7271 10.7674 11.0212 10.7674 11.0212C10.818 9.53224 11.1898 8.07176 11.8573 6.7398C12.5248 5.40784 13.4722 4.23585 14.6348 3.30408C13.297 6.73912 15.8441 13.7669 15.8441 13.9363Z" fill="url(#paint0_linear_1198_7624)"/>
<path d="M42.7592 18.2217C42.7595 20.0905 42.0276 21.8872 40.7161 23.2374C39.4046 24.5876 37.6145 25.3871 35.7193 25.4692H8.6167C7.4509 25.47 6.30148 25.1985 5.26295 24.6767C4.22442 24.155 3.32636 23.398 2.64258 22.4679C1.95879 21.5378 1.50882 20.4612 1.32957 19.3265C1.15032 18.1917 1.24694 17.0313 1.61149 15.9406C1.61149 15.9406 5.56747 20.9409 9.50609 20.6394C13.4447 20.3379 15.079 18.9726 16.6556 20.4062C18.2322 21.8398 21.8532 22.6134 24.5329 21.0604C27.2125 19.5074 33.0801 18.4948 36.1698 20.4062C38.7628 22.0047 41.6792 18.7337 42.5224 16.3729C42.6849 16.976 42.7646 17.5978 42.7592 18.2217Z" fill="url(#paint1_linear_1198_7624)"/>
<defs>
<linearGradient id="paint0_linear_1198_7624" x1="15.955" y1="14.1641" x2="11.2815" y2="5.98542" gradientUnits="userSpaceOnUse">
<stop offset="0.0546676" stop-color="#C7C9D6"/>
<stop offset="1" stop-color="#F0E7D8" stop-opacity="0.26"/>
</linearGradient>
<linearGradient id="paint1_linear_1198_7624" x1="22.09" y1="25.1906" x2="22.09" y2="18.6485" gradientUnits="userSpaceOnUse">
<stop stop-color="#C4C6D5"/>
<stop offset="1" stop-color="#F0E7D8"/>
</linearGradient>
</defs>
</svg>
