<svg width="52" height="31" viewBox="0 0 52 31" fill="none" xmlns="http://www.w3.org/2000/svg">
<path d="M50.9783 21.2152C50.9753 23.4982 50.093 25.6923 48.5146 27.3418C46.9363 28.9914 44.7832 29.9696 42.5025 30.0733V30.0733H9.87901C7.52416 30.0733 5.26575 29.1378 3.60061 27.4727C1.93548 25.8075 1 23.5492 1 21.1943C1 18.8394 1.93548 16.581 3.60061 14.9159C5.26575 13.2508 7.52416 12.3153 9.87901 12.3153C10.8117 12.3177 11.7383 12.4655 12.6254 12.7533C12.7731 9.55061 14.1634 6.53158 16.5011 4.33738C18.8387 2.14317 21.9396 0.946622 25.1453 1.00183C28.3509 1.05704 31.4088 2.35967 33.6695 4.63306C35.9302 6.90646 37.2157 9.97155 37.253 13.1775C37.253 13.3791 37.253 13.5738 37.253 13.7685C38.5911 12.8877 40.1428 12.386 41.7433 12.3166C43.3437 12.2473 44.933 12.6129 46.3423 13.3746C47.7515 14.1362 48.9281 15.2655 49.7468 16.6424C50.5656 18.0193 50.9959 19.5924 50.9922 21.1943L50.9783 21.2152Z" fill="#F0E7D8" stroke="#5B2684" stroke-width="0.695302" stroke-linecap="round" stroke-linejoin="round"/>
<path d="M18.928 16.5516L18.8655 16.4334C18.2745 15.1193 12.8928 13.082 12.8928 13.082C12.9518 11.3103 13.393 9.57222 14.1862 7.98689C14.9795 6.40157 16.1061 5.00644 17.4888 3.89709C15.8965 8.02023 18.928 16.3638 18.928 16.5516Z" fill="url(#paint0_linear_825_6578)"/>
<path d="M50.5607 21.315C50.5577 23.598 49.7088 25.3359 48.1305 26.9854C46.5522 28.635 44.7407 29.3119 42.46 29.4156L10.4625 29.8206C9.05993 29.8183 7.66103 29.6491 6.41221 29.0106C5.16339 28.372 3.99507 27.311 3.17195 26.1754C2.34884 25.0397 1.77 23.5106 1.55182 22.125C1.33365 20.7395 1.52297 19.4084 1.95724 18.0747C1.95724 18.0747 6.20018 24.5392 10.9421 24.1707C15.6841 23.8022 17.6587 22.1265 19.5499 23.8787C21.4412 25.6308 25.8077 26.5765 29.0339 24.6852C32.2601 22.794 39.3243 21.5425 43.0442 23.8787C46.1661 25.8394 49.1405 21.7772 50.1557 18.8848C50.3484 19.6248 50.5641 20.5503 50.5607 21.315Z" fill="url(#paint1_linear_825_6578)"/>
<defs>
<linearGradient id="paint0_linear_825_6578" x1="15.9104" y1="3.89709" x2="15.9104" y2="16.5516" gradientUnits="userSpaceOnUse">
<stop stop-color="#BEC2D5"/>
<stop offset="1" stop-color="#E8E8E8"/>
</linearGradient>
<linearGradient id="paint1_linear_825_6578" x1="25.8537" y1="20.9099" x2="25.8537" y2="32.6559" gradientUnits="userSpaceOnUse">
<stop stop-color="#C8CBDA"/>
<stop offset="1" stop-color="#E4E4E4" stop-opacity="0"/>
</linearGradient>
</defs>
</svg>
