<svg width="48" height="29" viewBox="0 0 48 29" fill="none" xmlns="http://www.w3.org/2000/svg">
<path d="M47.2851 20.0123C47.2826 22.125 46.4659 24.1554 45.005 25.6815C43.5441 27.2077 41.5512 28.1121 39.4406 28.2068H9.25712C8.06652 28.2127 6.88887 27.9598 5.80567 27.4656C4.72246 26.9714 3.75959 26.2476 2.98377 25.3445C2.20794 24.4413 1.63768 23.3803 1.31246 22.235C0.987238 21.0896 0.914822 19.8873 1.10024 18.7112C1.28566 17.5351 1.72449 16.4134 2.38632 15.4236C3.04815 14.4339 3.91721 13.5999 4.93328 12.9792C5.94934 12.3586 7.08811 11.9662 8.27083 11.8292C9.45354 11.6922 10.6519 11.8139 11.7829 12.1859C11.8384 9.1642 13.092 6.28834 15.2679 4.19094C17.4438 2.09354 20.3638 0.946419 23.3855 1.00192C26.4071 1.05743 29.283 2.31102 31.3804 4.48691C33.4778 6.6628 34.6249 9.58276 34.5694 12.6044C34.5694 12.7885 34.5694 12.9653 34.5694 13.1529C35.6582 12.4365 36.902 11.9899 38.1978 11.8504C39.4937 11.7108 40.8041 11.8821 42.0204 12.3503C43.2368 12.8184 44.324 13.5698 45.1919 14.5421C46.0598 15.5144 46.6833 16.6796 47.0108 17.9411C47.1917 18.6167 47.2839 19.3129 47.2851 20.0123Z" fill="#F0E7D8" stroke="#5B2684" stroke-width="0.6" stroke-linecap="round" stroke-linejoin="round"/>
<path d="M17.3877 15.4239C17.3658 15.3881 17.3465 15.3507 17.33 15.3121C16.7815 14.0961 11.9312 12.3518 11.9312 12.3518C11.9872 10.7123 12.2639 8.96507 12.9988 7.49847C13.7336 6.03187 14.7765 4.74128 16.0562 3.71497C14.5804 7.50008 17.3877 15.2363 17.3877 15.4239Z" fill="url(#paint0_linear_1198_7636)"/>
<path d="M46.9564 20.1283C46.9539 22.1842 46.3197 24.3184 44.8545 25.8035C43.3893 27.2886 41.3721 28.0235 39.2553 28.1156H9.28025C7.97865 28.1144 6.79573 27.7829 5.63669 27.2082C4.47765 26.6336 3.37544 25.832 2.61187 24.8092C1.84829 23.7865 1.62196 22.5241 1.42046 21.2764C1.21896 20.0288 1.43755 18.3859 1.84209 17.1855C1.84209 17.1855 5.87124 23.133 10.2718 22.803C14.6724 22.4729 16.5 20.963 18.2588 22.5396C20.0176 24.1162 24.0816 24.9941 27.0672 23.3016C30.0528 21.6091 36.6139 20.4925 40.0663 22.5747C42.9615 24.3304 45.5951 20.6282 46.536 18.0263C46.7116 18.681 46.959 19.4518 46.9564 20.1283Z" fill="url(#paint1_linear_1198_7636)"/>
<defs>
<linearGradient id="paint0_linear_1198_7636" x1="16.7454" y1="13.8795" x2="12.2351" y2="6.30209" gradientUnits="userSpaceOnUse">
<stop offset="0.0648515" stop-color="#C0C4D5"/>
<stop offset="1" stop-color="#F0E7D8"/>
</linearGradient>
<linearGradient id="paint1_linear_1198_7636" x1="21.2083" y1="34.5032" x2="21.549" y2="20.4574" gradientUnits="userSpaceOnUse">
<stop stop-color="#8799D0"/>
<stop offset="1" stop-color="#F0E7D8"/>
</linearGradient>
</defs>
</svg>
