<svg width="39" height="24" viewBox="0 0 39 24" fill="none" xmlns="http://www.w3.org/2000/svg">
<path d="M38.6343 16.3306C38.6346 18.0503 37.9712 19.7037 36.7823 20.9462C35.5935 22.1888 33.9709 22.9245 32.2529 23H7.68509C5.9121 23 4.2117 22.2957 2.95801 21.042C1.70431 19.7883 1 18.0879 1 16.3149C1 14.5419 1.70431 12.8416 2.95801 11.5879C4.2117 10.3342 5.9121 9.62985 7.68509 9.62985C8.39661 9.62759 9.10379 9.74073 9.77909 9.96489C9.86082 7.53231 10.8953 5.2293 12.6595 3.55251C14.4238 1.87571 16.7763 0.959477 19.2099 1.00138C21.6435 1.04328 23.9632 2.03995 25.6686 3.77649C27.3741 5.51302 28.3287 7.85028 28.3266 10.2842C28.3266 10.4308 28.3266 10.5826 28.3266 10.7292C29.2127 10.1458 30.2253 9.78214 31.2801 9.66853C32.3349 9.55492 33.4016 9.69461 34.3916 10.076C35.3817 10.4574 36.2664 11.0694 36.9725 11.8613C37.6785 12.6532 38.1854 13.6021 38.4511 14.6293C38.5879 15.1857 38.6495 15.7579 38.6343 16.3306V16.3306Z" fill="#F0E7D8" stroke="#5B2684" stroke-width="0.523499" stroke-linecap="round" stroke-linejoin="round"/>
<path d="M14.3019 12.5923C14.2816 12.5634 14.2657 12.5316 14.2547 12.4981C13.8097 11.5087 9.75262 9.98005 9.75262 9.98005C9.79797 8.64575 10.1311 7.337 10.7293 6.14342C11.3274 4.94983 12.1764 3.89961 13.2182 3.06464C12.0194 6.14281 14.3019 12.4405 14.3019 12.5923Z" fill="url(#paint0_linear_825_6582)"/>
<path d="M38.4207 16.4325C38.421 18.1071 37.7652 19.7171 36.5899 20.9271C35.4146 22.137 33.8106 22.8534 32.1122 22.927H7.82536C6.78067 22.9278 5.75067 22.6844 4.82003 22.2169C3.88939 21.7493 3.08463 21.071 2.47189 20.2375C1.85914 19.404 1.45592 18.4393 1.29529 17.4224C1.13466 16.4056 1.22125 15.3658 1.54792 14.3883C1.54792 14.3883 5.09291 18.8692 8.62235 18.599C12.1518 18.3288 13.6163 17.1054 15.0291 18.39C16.4419 19.6746 19.6867 20.3679 22.088 18.9762C24.4893 17.5846 29.7472 16.6772 32.5159 18.39C34.8395 19.8225 37.453 16.8913 38.2085 14.7757C38.3542 15.3162 38.4256 15.8734 38.4207 16.4325Z" fill="url(#paint1_linear_825_6582)"/>
<defs>
<linearGradient id="paint0_linear_825_6582" x1="14.4013" y1="12.7964" x2="10.2133" y2="5.46741" gradientUnits="userSpaceOnUse">
<stop offset="0.0546676" stop-color="#C7C9D6"/>
<stop offset="1" stop-color="#F0E7D8" stop-opacity="0.26"/>
</linearGradient>
<linearGradient id="paint1_linear_825_6582" x1="19.8989" y1="22.6773" x2="19.8989" y2="16.8149" gradientUnits="userSpaceOnUse">
<stop stop-color="#C4C6D5"/>
<stop offset="1" stop-color="#F0E7D8"/>
</linearGradient>
</defs>
</svg>
