<svg width="89" height="87" viewBox="0 0 89 87" fill="none" xmlns="http://www.w3.org/2000/svg">
<path d="M24.84 86.6801C38.5588 86.6801 49.6801 75.5588 49.6801 61.84C49.6801 48.1213 38.5588 37 24.84 37C11.1213 37 0 48.1213 0 61.84C0 75.5588 11.1213 86.6801 24.84 86.6801Z" fill="url(#paint0_radial_352_271)"/>
<path d="M33.0977 44.9119C33.0977 44.9119 27.6816 50.2936 26.9778 59.9756C36.6941 60.0872 42.5049 55.1432 42.5049 55.1432" fill="#EFEE98"/>
<path d="M33.0977 44.9119C33.0977 44.9119 27.6816 50.2936 26.9778 59.9756C36.6941 60.0872 42.5049 55.1432 42.5049 55.1432" stroke="#5B2783" stroke-width="0.858328" stroke-miterlimit="10"/>
<path d="M56.4831 42.2395L46.1125 30.9617L32.0547 43.8885L42.4252 55.1664L56.4831 42.2395Z" fill="#432237" stroke="#5B2783" stroke-width="0.858328" stroke-miterlimit="10"/>
<path d="M44.8999 68.8936C44.8999 68.8936 54.4016 63.0742 54.599 53.1691C54.7964 43.2639 49.964 39.1526 49.964 39.1526C45.6097 42.1414 42.537 46.6569 41.355 51.8043C38.7113 62.9111 44.8999 68.8936 44.8999 68.8936Z" fill="url(#paint1_linear_352_271)" stroke="#5B2783" stroke-width="0.858328" stroke-miterlimit="10"/>
<path d="M52.3672 75.0823C52.3672 75.0823 63.5255 65.778 61.9547 52.9374C60.384 40.0969 53.3714 35.6936 53.3714 35.6936C48.2862 40.3722 45.1432 46.7898 44.565 53.6756C43.2432 68.5247 52.3672 75.0823 52.3672 75.0823Z" fill="url(#paint2_linear_352_271)" stroke="#5B2783" stroke-width="0.858328" stroke-miterlimit="10"/>
<path d="M52.3672 75.0913L53.3285 35.6941" stroke="#5B2783" stroke-width="0.858328" stroke-miterlimit="10"/>
<path d="M19.5532 41.3245C19.5532 41.3245 26.1366 32.3464 36.0245 32.973C45.9125 33.5996 49.6033 38.7581 49.6033 38.7581C46.2696 42.8631 41.5148 45.5653 36.282 46.3286C24.995 47.9937 19.5532 41.3245 19.5532 41.3245Z" fill="url(#paint3_linear_352_271)" stroke="#5B2783" stroke-width="0.858328" stroke-miterlimit="10"/>
<path d="M14 33.3679C14 33.3679 24.2055 22.9908 36.8659 25.643C49.5262 28.2952 53.3715 35.694 53.3715 35.694C48.291 40.3741 41.6362 42.9723 34.7286 42.9726C19.7765 43.007 14 33.3679 14 33.3679Z" fill="url(#paint4_linear_352_271)" stroke="#5B2783" stroke-width="0.858328" stroke-miterlimit="10"/>
<path d="M14 33.3591L53.3286 35.6938" stroke="#5B2783" stroke-width="0.858328" stroke-miterlimit="10"/>
<path d="M50.7966 32.4842C50.7966 32.4842 56.3586 24.2443 60.8047 29.0509C65.4397 34.0636 56.6333 38.9389 56.6333 38.9389L50.7966 32.4842Z" fill="#432237" stroke="#5B2783" stroke-width="0.858328" stroke-miterlimit="10"/>
<path d="M62.5812 27.2389C62.5812 27.2389 55.3713 26.4664 54.264 34.7922C54.2297 34.7922 61.7315 35.2299 62.5812 27.2389Z" fill="url(#paint5_linear_352_271)" stroke="#5B2783" stroke-width="0.858328" stroke-miterlimit="10"/>
<path d="M62.1265 32.3973C62.1265 32.3973 71.7054 22.4578 88.1252 30.3201" stroke="#5B2783" stroke-width="0.858328" stroke-miterlimit="10"/>
<path d="M61.8347 1C61.8347 1 69.4224 16.7589 56.6418 27.6769" stroke="#5B2783" stroke-width="0.858328" stroke-miterlimit="10"/>
<defs>
<radialGradient id="paint0_radial_352_271" cx="0" cy="0" r="1" gradientUnits="userSpaceOnUse" gradientTransform="translate(29.103 56.9798) rotate(47.4) scale(22.308)">
<stop stop-color="#F5DD9F"/>
<stop offset="1" stop-color="#E38382" stop-opacity="0"/>
</radialGradient>
<linearGradient id="paint1_linear_352_271" x1="26.2266" y1="75.2778" x2="53.975" y2="47.5552" gradientUnits="userSpaceOnUse">
<stop stop-color="#EA84BB"/>
<stop offset="1" stop-color="#432237"/>
</linearGradient>
<linearGradient id="paint2_linear_352_271" x1="37.7068" y1="64.8889" x2="79.693" y2="38.5265" gradientUnits="userSpaceOnUse">
<stop stop-color="#EA84BB"/>
<stop offset="1" stop-color="#432237"/>
</linearGradient>
<linearGradient id="paint3_linear_352_271" x1="12.7605" y1="61.8031" x2="40.5175" y2="34.0808" gradientUnits="userSpaceOnUse">
<stop stop-color="#EA84BB"/>
<stop offset="1" stop-color="#432237"/>
</linearGradient>
<linearGradient id="paint4_linear_352_271" x1="22.852" y1="41.2264" x2="64.8296" y2="14.8637" gradientUnits="userSpaceOnUse">
<stop stop-color="#EA84BB"/>
<stop offset="1" stop-color="#432237"/>
</linearGradient>
<linearGradient id="paint5_linear_352_271" x1="54.4269" y1="30.8305" x2="62.4193" y2="31.1696" gradientUnits="userSpaceOnUse">
<stop stop-color="#EA84BB"/>
<stop offset="1" stop-color="#432237"/>
</linearGradient>
</defs>
</svg>
