<svg width="67" height="66" viewBox="0 0 67 66" fill="none" xmlns="http://www.w3.org/2000/svg">
<path d="M18.8445 66C29.2521 66 37.6891 57.563 37.6891 47.1555C37.6891 36.7479 29.2521 28.3109 18.8445 28.3109C8.43699 28.3109 0 36.7479 0 47.1555C0 57.563 8.43699 66 18.8445 66Z" fill="url(#paint0_radial_1269_8140)"/>
<path d="M25.1093 34.3132C25.1093 34.3132 21.0005 38.396 20.4666 45.7411C27.8377 45.8258 32.246 42.0751 32.246 42.0751" fill="#EFEE98"/>
<path d="M25.1093 34.3132C25.1093 34.3132 21.0005 38.396 20.4666 45.7411C27.8377 45.8258 32.246 42.0751 32.246 42.0751" stroke="#5B2783" stroke-width="0.651159" stroke-miterlimit="10"/>
<path d="M42.8504 32.2858L34.9829 23.73L24.3181 33.5368L32.1856 42.0926L42.8504 32.2858Z" fill="#432237" stroke="#5B2783" stroke-width="0.651159" stroke-miterlimit="10"/>
<path d="M34.0634 52.5065C34.0634 52.5065 41.2718 48.0916 41.4215 40.5772C41.5713 33.0629 37.9053 29.9438 37.9053 29.9438C34.6019 32.2113 32.2709 35.6369 31.3741 39.5419C29.3686 47.9679 34.0634 52.5065 34.0634 52.5065Z" fill="url(#paint1_linear_1269_8140)" stroke="#5B2783" stroke-width="0.651159" stroke-miterlimit="10"/>
<path d="M39.7281 57.2014C39.7281 57.2014 48.1931 50.1428 47.0015 40.4015C45.8099 30.6602 40.4899 27.3197 40.4899 27.3197C36.632 30.869 34.2477 35.7377 33.809 40.9615C32.8062 52.2265 39.7281 57.2014 39.7281 57.2014Z" fill="url(#paint2_linear_1269_8140)" stroke="#5B2783" stroke-width="0.651159" stroke-miterlimit="10"/>
<path d="M39.728 57.2082L40.4573 27.3201" stroke="#5B2783" stroke-width="0.651159" stroke-miterlimit="10"/>
<path d="M14.8345 31.5915C14.8345 31.5915 19.8289 24.7804 27.3302 25.2557C34.8316 25.7311 37.6315 29.6445 37.6315 29.6445C35.1025 32.7587 31.4953 34.8087 27.5256 35.3877C18.9628 36.651 14.8345 31.5915 14.8345 31.5915Z" fill="url(#paint3_linear_1269_8140)" stroke="#5B2783" stroke-width="0.651159" stroke-miterlimit="10"/>
<path d="M10.6211 25.5555C10.6211 25.5555 18.3634 17.683 27.968 19.695C37.5726 21.7071 40.4898 27.3201 40.4898 27.3201C36.6355 30.8706 31.5869 32.8417 26.3466 32.8419C15.0034 32.868 10.6211 25.5555 10.6211 25.5555Z" fill="url(#paint4_linear_1269_8140)" stroke="#5B2783" stroke-width="0.651159" stroke-miterlimit="10"/>
<path d="M10.6211 25.5488L40.4572 27.32" stroke="#5B2783" stroke-width="0.651159" stroke-miterlimit="10"/>
<path d="M38.5369 24.8851C38.5369 24.8851 42.7564 18.634 46.1294 22.2804C49.6456 26.0832 42.9647 29.7818 42.9647 29.7818L38.5369 24.8851Z" fill="#432237" stroke="#5B2783" stroke-width="0.651159" stroke-miterlimit="10"/>
<path d="M47.4768 20.9057C47.4768 20.9057 42.0071 20.3197 41.1671 26.6359C41.141 26.6359 46.8322 26.968 47.4768 20.9057Z" fill="url(#paint5_linear_1269_8140)" stroke="#5B2783" stroke-width="0.651159" stroke-miterlimit="10"/>
<path d="M47.1318 24.819C47.1318 24.819 54.3988 17.2785 66.8554 23.2432" stroke="#5B2783" stroke-width="0.651159" stroke-miterlimit="10"/>
<path d="M46.9102 0.999878C46.9102 0.999878 52.6665 12.9552 42.9707 21.2379" stroke="#5B2783" stroke-width="0.651159" stroke-miterlimit="10"/>
<defs>
<radialGradient id="paint0_radial_1269_8140" cx="0" cy="0" r="1" gradientUnits="userSpaceOnUse" gradientTransform="translate(22.0786 43.4683) rotate(47.4) scale(16.9236)">
<stop stop-color="#F5DD9F"/>
<stop offset="1" stop-color="#E38382" stop-opacity="0"/>
</radialGradient>
<linearGradient id="paint1_linear_1269_8140" x1="19.8972" y1="57.3497" x2="40.9482" y2="36.3184" gradientUnits="userSpaceOnUse">
<stop stop-color="#EA84BB"/>
<stop offset="1" stop-color="#432237"/>
</linearGradient>
<linearGradient id="paint2_linear_1269_8140" x1="28.6061" y1="49.4683" x2="60.4584" y2="29.4689" gradientUnits="userSpaceOnUse">
<stop stop-color="#EA84BB"/>
<stop offset="1" stop-color="#432237"/>
</linearGradient>
<linearGradient id="paint3_linear_1269_8140" x1="9.68128" y1="47.1272" x2="30.7388" y2="26.0962" gradientUnits="userSpaceOnUse">
<stop stop-color="#EA84BB"/>
<stop offset="1" stop-color="#432237"/>
</linearGradient>
<linearGradient id="paint4_linear_1269_8140" x1="17.3366" y1="31.5172" x2="49.1823" y2="11.5175" gradientUnits="userSpaceOnUse">
<stop stop-color="#EA84BB"/>
<stop offset="1" stop-color="#432237"/>
</linearGradient>
<linearGradient id="paint5_linear_1269_8140" x1="41.2906" y1="23.6304" x2="47.354" y2="23.8877" gradientUnits="userSpaceOnUse">
<stop stop-color="#EA84BB"/>
<stop offset="1" stop-color="#432237"/>
</linearGradient>
</defs>
</svg>
