<svg width="68" height="66" viewBox="0 0 68 66" fill="none" xmlns="http://www.w3.org/2000/svg">
<path d="M19.816 66C30.2235 66 38.6605 57.563 38.6605 47.1555C38.6605 36.7479 30.2235 28.3109 19.816 28.3109C9.40843 28.3109 0.971436 36.7479 0.971436 47.1555C0.971436 57.563 9.40843 66 19.816 66Z" fill="url(#paint0_radial_1036_7831)"/>
<path d="M26.0809 34.3132C26.0809 34.3132 21.9721 38.396 21.4381 45.741C28.8092 45.8257 33.2176 42.075 33.2176 42.075" fill="#EFEE98"/>
<path d="M26.0809 34.3132C26.0809 34.3132 21.9721 38.396 21.4381 45.741C28.8092 45.8257 33.2176 42.075 33.2176 42.075" stroke="#5B2783" stroke-width="0.651159" stroke-miterlimit="10"/>
<path d="M43.8218 32.2857L35.9543 23.7299L25.2896 33.5367L33.157 42.0925L43.8218 32.2857Z" fill="#432237" stroke="#5B2783" stroke-width="0.651159" stroke-miterlimit="10"/>
<path d="M35.035 52.5065C35.035 52.5065 42.2433 48.0917 42.3931 40.5773C42.5428 33.0629 38.8768 29.9439 38.8768 29.9439C35.5735 32.2113 33.2424 35.6369 32.3457 39.542C30.3401 47.968 35.035 52.5065 35.035 52.5065Z" fill="url(#paint1_linear_1036_7831)" stroke="#5B2783" stroke-width="0.651159" stroke-miterlimit="10"/>
<path d="M40.6995 57.2014C40.6995 57.2014 49.1646 50.1429 47.9729 40.4015C46.7813 30.6602 41.4614 27.3197 41.4614 27.3197C37.6035 30.869 35.2191 35.7377 34.7805 40.9615C33.7777 52.2266 40.6995 57.2014 40.6995 57.2014Z" fill="url(#paint2_linear_1036_7831)" stroke="#5B2783" stroke-width="0.651159" stroke-miterlimit="10"/>
<path d="M40.6993 57.2083L41.4286 27.3201" stroke="#5B2783" stroke-width="0.651159" stroke-miterlimit="10"/>
<path d="M15.8059 31.5915C15.8059 31.5915 20.8003 24.7804 28.3016 25.2558C35.803 25.7311 38.603 29.6446 38.603 29.6446C36.0739 32.7588 32.4668 34.8087 28.497 35.3878C19.9342 36.651 15.8059 31.5915 15.8059 31.5915Z" fill="url(#paint3_linear_1036_7831)" stroke="#5B2783" stroke-width="0.651159" stroke-miterlimit="10"/>
<path d="M11.5927 25.5555C11.5927 25.5555 19.3349 17.683 28.9395 19.6951C38.5441 21.7071 41.4613 27.3201 41.4613 27.3201C37.6071 30.8706 32.5585 32.8417 27.3181 32.842C15.9749 32.868 11.5927 25.5555 11.5927 25.5555Z" fill="url(#paint4_linear_1036_7831)" stroke="#5B2783" stroke-width="0.651159" stroke-miterlimit="10"/>
<path d="M11.5927 25.5488L41.4288 27.32" stroke="#5B2783" stroke-width="0.651159" stroke-miterlimit="10"/>
<path d="M39.5082 24.885C39.5082 24.885 43.7277 18.6339 47.1007 22.2804C50.617 26.0831 43.9361 29.7817 43.9361 29.7817L39.5082 24.885Z" fill="#432237" stroke="#5B2783" stroke-width="0.651159" stroke-miterlimit="10"/>
<path d="M48.4482 20.9057C48.4482 20.9057 42.9785 20.3196 42.1385 26.6359C42.1125 26.6359 47.8036 26.968 48.4482 20.9057Z" fill="url(#paint5_linear_1036_7831)" stroke="#5B2783" stroke-width="0.651159" stroke-miterlimit="10"/>
<path d="M48.1033 24.8191C48.1033 24.8191 55.3702 17.2786 67.8269 23.2432" stroke="#5B2783" stroke-width="0.651159" stroke-miterlimit="10"/>
<path d="M47.8818 0.999939C47.8818 0.999939 53.638 12.9552 43.9423 21.238" stroke="#5B2783" stroke-width="0.651159" stroke-miterlimit="10"/>
<defs>
<radialGradient id="paint0_radial_1036_7831" cx="0" cy="0" r="1" gradientUnits="userSpaceOnUse" gradientTransform="translate(23.05 43.4683) rotate(47.4) scale(16.9236)">
<stop stop-color="#F5DD9F"/>
<stop offset="1" stop-color="#E38382" stop-opacity="0"/>
</radialGradient>
<linearGradient id="paint1_linear_1036_7831" x1="20.8688" y1="57.3498" x2="41.9197" y2="36.3184" gradientUnits="userSpaceOnUse">
<stop stop-color="#EA84BB"/>
<stop offset="1" stop-color="#432237"/>
</linearGradient>
<linearGradient id="paint2_linear_1036_7831" x1="29.5776" y1="49.4683" x2="61.4298" y2="29.4689" gradientUnits="userSpaceOnUse">
<stop stop-color="#EA84BB"/>
<stop offset="1" stop-color="#432237"/>
</linearGradient>
<linearGradient id="paint3_linear_1036_7831" x1="10.6527" y1="47.1273" x2="31.7102" y2="26.0962" gradientUnits="userSpaceOnUse">
<stop stop-color="#EA84BB"/>
<stop offset="1" stop-color="#432237"/>
</linearGradient>
<linearGradient id="paint4_linear_1036_7831" x1="18.3081" y1="31.5172" x2="50.1539" y2="11.5175" gradientUnits="userSpaceOnUse">
<stop stop-color="#EA84BB"/>
<stop offset="1" stop-color="#432237"/>
</linearGradient>
<linearGradient id="paint5_linear_1036_7831" x1="42.262" y1="23.6304" x2="48.3254" y2="23.8877" gradientUnits="userSpaceOnUse">
<stop stop-color="#EA84BB"/>
<stop offset="1" stop-color="#432237"/>
</linearGradient>
</defs>
</svg>
