<svg width="68" height="60" viewBox="0 0 68 60" fill="none" xmlns="http://www.w3.org/2000/svg">
<path d="M47.3439 39.8059C58.336 39.8059 67.2469 30.8951 67.2469 19.903C67.2469 8.91087 58.336 0 47.3439 0C36.3518 0 27.4409 8.91087 27.4409 19.903C27.4409 30.8951 36.3518 39.8059 47.3439 39.8059Z" fill="url(#paint0_radial_1036_7846)"/>
<path d="M46.1219 26.5511C46.1219 26.5511 50.936 22.7548 52.3115 15.1003C44.5882 14.1443 39.5197 17.5693 39.5197 17.5693" fill="#EFEE98"/>
<path d="M46.1219 26.5511C46.1219 26.5511 50.936 22.7548 52.3115 15.1003C44.5882 14.1443 39.5197 17.5693 39.5197 17.5693" stroke="#5B2783" stroke-width="0.687732" stroke-miterlimit="10"/>
<path d="M27.1842 26.5681L34.4362 36.4731L46.7827 27.4335L39.5307 17.5285L27.1842 26.5681Z" fill="#432237" stroke="#5B2783" stroke-width="0.687732" stroke-miterlimit="10"/>
<path d="M38.8663 6.40683C38.8663 6.40683 30.7856 10.1894 29.7402 18.057C28.6949 25.9247 32.1816 29.6315 32.1816 29.6315C35.9264 27.6478 38.7886 24.329 40.2006 20.3334C43.2885 11.723 38.8663 6.40683 38.8663 6.40683Z" fill="url(#paint1_linear_1036_7846)" stroke="#5B2783" stroke-width="0.687732" stroke-miterlimit="10"/>
<path d="M33.4746 0.801575C33.4746 0.801575 23.7295 7.21126 23.8464 17.5823C23.9633 27.9533 29.1694 32.0865 29.1694 32.0865C33.6383 28.819 36.7144 23.99 37.7867 18.5588C40.1525 6.84674 33.4746 0.801575 33.4746 0.801575Z" fill="url(#paint2_linear_1036_7846)" stroke="#5B2783" stroke-width="0.687732" stroke-miterlimit="10"/>
<path d="M33.4743 0.801575L29.1897 32.0797" stroke="#5B2783" stroke-width="0.687732" stroke-miterlimit="10"/>
<path d="M56.5886 30.6148C56.5886 30.6148 50.5434 37.1827 42.7308 35.7935C34.9181 34.4043 32.4148 29.9753 32.4148 29.9753C35.4395 27.0115 39.4679 25.2931 43.7005 25.1611C52.8542 24.8241 56.5886 30.6148 56.5886 30.6148Z" fill="url(#paint3_linear_1036_7846)" stroke="#5B2783" stroke-width="0.687732" stroke-miterlimit="10"/>
<path d="M60.3027 37.4515C60.3027 37.4515 51.2522 44.8033 41.4038 41.5435C31.5555 38.2836 29.1897 32.0871 29.1897 32.0871C33.6561 28.8154 39.1893 27.3425 44.6912 27.9608C56.5615 29.2606 60.3027 37.4515 60.3027 37.4515Z" fill="url(#paint4_linear_1036_7846)" stroke="#5B2783" stroke-width="0.687732" stroke-miterlimit="10"/>
<path d="M60.3027 37.4511L29.1897 32.0799" stroke="#5B2783" stroke-width="0.687732" stroke-miterlimit="10"/>
<path d="M30.9087 34.8725C30.9087 34.8725 25.7438 40.9383 22.6559 36.7088C19.4167 32.3004 26.8648 29.2125 26.8648 29.2125L30.9087 34.8725Z" fill="#432237" stroke="#5B2783" stroke-width="0.687732" stroke-miterlimit="10"/>
<path d="M21.0675 37.9812C21.0675 37.9812 26.7414 39.2398 28.3713 32.7063C28.3713 32.7201 22.4567 31.7022 21.0675 37.9812Z" fill="url(#paint5_linear_1036_7846)" stroke="#5B2783" stroke-width="0.687732" stroke-miterlimit="10"/>
<path d="M21.8931 33.9298C21.8931 33.9298 13.3789 40.9859 0.999756 33.2421" stroke="#5B2783" stroke-width="0.687732" stroke-miterlimit="10"/>
<path d="M19.3205 58.957C19.3205 58.957 14.6852 45.732 25.8402 38.1738" stroke="#5B2783" stroke-width="0.687732" stroke-miterlimit="10"/>
<defs>
<radialGradient id="paint0_radial_1036_7846" cx="0" cy="0" r="1" gradientUnits="userSpaceOnUse" gradientTransform="translate(50.7595 16.0088) rotate(47.4) scale(17.8742)">
<stop stop-color="#F5DD9F"/>
<stop offset="1" stop-color="#E38382" stop-opacity="0"/>
</radialGradient>
<linearGradient id="paint1_linear_1036_7846" x1="54.3613" y1="2.93333" x2="29.7895" y2="22.5359" gradientUnits="userSpaceOnUse">
<stop stop-color="#EA84BB"/>
<stop offset="1" stop-color="#432237"/>
</linearGradient>
<linearGradient id="paint2_linear_1036_7846" x1="44.2923" y1="10.18" x2="8.5062" y2="27.4212" gradientUnits="userSpaceOnUse">
<stop stop-color="#EA84BB"/>
<stop offset="1" stop-color="#432237"/>
</linearGradient>
<linearGradient id="paint3_linear_1036_7846" x1="63.8795" y1="14.8655" x2="39.3076" y2="34.4681" gradientUnits="userSpaceOnUse">
<stop stop-color="#EA84BB"/>
<stop offset="1" stop-color="#432237"/>
</linearGradient>
<linearGradient id="paint4_linear_1036_7846" x1="54.0067" y1="30.349" x2="18.2263" y2="47.598" gradientUnits="userSpaceOnUse">
<stop stop-color="#EA84BB"/>
<stop offset="1" stop-color="#432237"/>
</linearGradient>
<linearGradient id="paint5_linear_1036_7846" x1="27.9366" y1="35.8065" x2="21.6029" y2="34.8226" gradientUnits="userSpaceOnUse">
<stop stop-color="#EA84BB"/>
<stop offset="1" stop-color="#432237"/>
</linearGradient>
</defs>
</svg>
