<svg width="62" height="55" viewBox="0 0 62 55" fill="none" xmlns="http://www.w3.org/2000/svg">
<path d="M43.4478 36.4591C53.5158 36.4591 61.6774 28.2975 61.6774 18.2296C61.6774 8.16166 53.5158 0 43.4478 0C33.3799 0 25.2183 8.16166 25.2183 18.2296C25.2183 28.2975 33.3799 36.4591 43.4478 36.4591Z" fill="url(#paint0_radial_830_9401)"/>
<path d="M42.3285 24.3186C42.3285 24.3186 46.7378 20.8415 47.9977 13.8306C40.9238 12.955 36.2814 16.092 36.2814 16.092" fill="#EFEE98"/>
<path d="M42.3285 24.3186C42.3285 24.3186 46.7378 20.8415 47.9977 13.8306C40.9238 12.955 36.2814 16.092 36.2814 16.092" stroke="#5B2783" stroke-width="0.629909" stroke-miterlimit="10"/>
<path d="M24.9831 24.3342L31.6254 33.4064L42.9339 25.1268L36.2916 16.0546L24.9831 24.3342Z" fill="#432237" stroke="#5B2783" stroke-width="0.629909" stroke-miterlimit="10"/>
<path d="M35.6829 5.8681C35.6829 5.8681 28.2816 9.33261 27.3241 16.5388C26.3666 23.7449 29.5602 27.1401 29.5602 27.1401C32.9901 25.3232 35.6118 22.2834 36.905 18.6238C39.7333 10.7373 35.6829 5.8681 35.6829 5.8681Z" fill="url(#paint1_linear_830_9401)" stroke="#5B2783" stroke-width="0.629909" stroke-miterlimit="10"/>
<path d="M30.7446 0.734131C30.7446 0.734131 21.8188 6.6049 21.9259 16.1039C22.033 25.603 26.8014 29.3887 26.8014 29.3887C30.8945 26.3959 33.712 21.9729 34.6942 16.9984C36.861 6.27104 30.7446 0.734131 30.7446 0.734131Z" fill="url(#paint2_linear_830_9401)" stroke="#5B2783" stroke-width="0.629909" stroke-miterlimit="10"/>
<path d="M30.7444 0.734131L26.8201 29.3824" stroke="#5B2783" stroke-width="0.629909" stroke-miterlimit="10"/>
<path d="M51.9154 28.0407C51.9154 28.0407 46.3785 34.0564 39.2227 32.784C32.0669 31.5116 29.774 27.4549 29.774 27.4549C32.5444 24.7404 36.2341 23.1665 40.1109 23.0456C48.495 22.7369 51.9154 28.0407 51.9154 28.0407Z" fill="url(#paint3_linear_830_9401)" stroke="#5B2783" stroke-width="0.629909" stroke-miterlimit="10"/>
<path d="M55.3172 34.3026C55.3172 34.3026 47.0276 41.0363 38.0073 38.0506C28.987 35.0648 26.8201 29.3893 26.8201 29.3893C30.9109 26.3926 35.979 25.0436 41.0182 25.6099C51.8905 26.8004 55.3172 34.3026 55.3172 34.3026Z" fill="url(#paint4_linear_830_9401)" stroke="#5B2783" stroke-width="0.629909" stroke-miterlimit="10"/>
<path d="M55.3172 34.3023L26.8201 29.3827" stroke="#5B2783" stroke-width="0.629909" stroke-miterlimit="10"/>
<path d="M28.3946 31.9404C28.3946 31.9404 23.664 37.4963 20.8357 33.6223C17.8688 29.5846 24.6907 26.7563 24.6907 26.7563L28.3946 31.9404Z" fill="#432237" stroke="#5B2783" stroke-width="0.629909" stroke-miterlimit="10"/>
<path d="M19.3807 34.7877C19.3807 34.7877 24.5776 35.9405 26.0704 29.9563C26.0704 29.9689 20.6532 29.0367 19.3807 34.7877Z" fill="url(#paint5_linear_830_9401)" stroke="#5B2783" stroke-width="0.629909" stroke-miterlimit="10"/>
<path d="M20.1369 31.0771C20.1369 31.0771 12.3386 37.5399 1.00024 30.4471" stroke="#5B2783" stroke-width="0.629909" stroke-miterlimit="10"/>
<path d="M17.7806 54C17.7806 54 13.535 41.8869 23.7521 34.9642" stroke="#5B2783" stroke-width="0.629909" stroke-miterlimit="10"/>
<defs>
<radialGradient id="paint0_radial_830_9401" cx="0" cy="0" r="1" gradientUnits="userSpaceOnUse" gradientTransform="translate(46.5763 14.6628) rotate(47.4) scale(16.3713)">
<stop stop-color="#F5DD9F"/>
<stop offset="1" stop-color="#E38382" stop-opacity="0"/>
</radialGradient>
<linearGradient id="paint1_linear_830_9401" x1="49.8751" y1="2.68665" x2="27.3693" y2="20.6411" gradientUnits="userSpaceOnUse">
<stop stop-color="#EA84BB"/>
<stop offset="1" stop-color="#432237"/>
</linearGradient>
<linearGradient id="paint2_linear_830_9401" x1="40.6528" y1="9.32406" x2="7.87547" y2="25.1156" gradientUnits="userSpaceOnUse">
<stop stop-color="#EA84BB"/>
<stop offset="1" stop-color="#432237"/>
</linearGradient>
<linearGradient id="paint3_linear_830_9401" x1="58.5932" y1="13.6155" x2="36.0873" y2="31.5701" gradientUnits="userSpaceOnUse">
<stop stop-color="#EA84BB"/>
<stop offset="1" stop-color="#432237"/>
</linearGradient>
<linearGradient id="paint4_linear_830_9401" x1="49.5505" y1="27.7973" x2="16.7785" y2="43.5961" gradientUnits="userSpaceOnUse">
<stop stop-color="#EA84BB"/>
<stop offset="1" stop-color="#432237"/>
</linearGradient>
<linearGradient id="paint5_linear_830_9401" x1="25.6723" y1="32.7959" x2="19.8711" y2="31.8947" gradientUnits="userSpaceOnUse">
<stop stop-color="#EA84BB"/>
<stop offset="1" stop-color="#432237"/>
</linearGradient>
</defs>
</svg>
