<svg width="68" height="60" viewBox="0 0 68 60" fill="none" xmlns="http://www.w3.org/2000/svg">
<path d="M47.3441 39.8059C58.3362 39.8059 67.2471 30.8951 67.2471 19.903C67.2471 8.91087 58.3362 0 47.3441 0C36.352 0 27.4412 8.91087 27.4412 19.903C27.4412 30.8951 36.352 39.8059 47.3441 39.8059Z" fill="url(#paint0_radial_1269_8155)"/>
<path d="M46.122 26.5511C46.122 26.5511 50.9361 22.7548 52.3116 15.1003C44.5883 14.1444 39.5198 17.5693 39.5198 17.5693" fill="#EFEE98"/>
<path d="M46.122 26.5511C46.122 26.5511 50.9361 22.7548 52.3116 15.1003C44.5883 14.1444 39.5198 17.5693 39.5198 17.5693" stroke="#5B2783" stroke-width="0.687732" stroke-miterlimit="10"/>
<path d="M27.1843 26.568L34.4363 36.473L46.7828 27.4334L39.5308 17.5284L27.1843 26.568Z" fill="#432237" stroke="#5B2783" stroke-width="0.687732" stroke-miterlimit="10"/>
<path d="M38.8666 6.40674C38.8666 6.40674 30.7858 10.1893 29.7405 18.0569C28.6951 25.9246 32.1818 29.6314 32.1818 29.6314C35.9266 27.6477 38.7889 24.3289 40.2008 20.3333C43.2887 11.7229 38.8666 6.40674 38.8666 6.40674Z" fill="url(#paint1_linear_1269_8155)" stroke="#5B2783" stroke-width="0.687732" stroke-miterlimit="10"/>
<path d="M33.4748 0.801514C33.4748 0.801514 23.7296 7.21119 23.8465 17.5822C23.9634 27.9532 29.1695 32.0864 29.1695 32.0864C33.6384 28.8189 36.7145 23.9899 37.7868 18.5588C40.1526 6.84668 33.4748 0.801514 33.4748 0.801514Z" fill="url(#paint2_linear_1269_8155)" stroke="#5B2783" stroke-width="0.687732" stroke-miterlimit="10"/>
<path d="M33.4745 0.801514L29.1899 32.0796" stroke="#5B2783" stroke-width="0.687732" stroke-miterlimit="10"/>
<path d="M56.5888 30.6148C56.5888 30.6148 50.5437 37.1827 42.731 35.7935C34.9184 34.4043 32.415 29.9753 32.415 29.9753C35.4397 27.0115 39.4681 25.2931 43.7007 25.1611C52.8545 24.8241 56.5888 30.6148 56.5888 30.6148Z" fill="url(#paint3_linear_1269_8155)" stroke="#5B2783" stroke-width="0.687732" stroke-miterlimit="10"/>
<path d="M60.3029 37.4514C60.3029 37.4514 51.2524 44.8033 41.4041 41.5434C31.5557 38.2836 29.1899 32.0871 29.1899 32.0871C33.6563 28.8153 39.1896 27.3424 44.6915 27.9607C56.5617 29.2605 60.3029 37.4514 60.3029 37.4514Z" fill="url(#paint4_linear_1269_8155)" stroke="#5B2783" stroke-width="0.687732" stroke-miterlimit="10"/>
<path d="M60.3029 37.451L29.1899 32.0798" stroke="#5B2783" stroke-width="0.687732" stroke-miterlimit="10"/>
<path d="M30.9091 34.8725C30.9091 34.8725 25.7442 40.9384 22.6563 36.7088C19.417 32.3005 26.8652 29.2125 26.8652 29.2125L30.9091 34.8725Z" fill="#432237" stroke="#5B2783" stroke-width="0.687732" stroke-miterlimit="10"/>
<path d="M21.0676 37.9812C21.0676 37.9812 26.7415 39.2398 28.3714 32.7063C28.3714 32.7201 22.4568 31.7022 21.0676 37.9812Z" fill="url(#paint5_linear_1269_8155)" stroke="#5B2783" stroke-width="0.687732" stroke-miterlimit="10"/>
<path d="M21.8933 33.9298C21.8933 33.9298 13.3792 40.9859 1 33.2421" stroke="#5B2783" stroke-width="0.687732" stroke-miterlimit="10"/>
<path d="M19.3206 58.957C19.3206 58.957 14.6853 45.7319 25.8403 38.1737" stroke="#5B2783" stroke-width="0.687732" stroke-miterlimit="10"/>
<defs>
<radialGradient id="paint0_radial_1269_8155" cx="0" cy="0" r="1" gradientUnits="userSpaceOnUse" gradientTransform="translate(50.7598 16.0088) rotate(47.4) scale(17.8742)">
<stop stop-color="#F5DD9F"/>
<stop offset="1" stop-color="#E38382" stop-opacity="0"/>
</radialGradient>
<linearGradient id="paint1_linear_1269_8155" x1="54.3616" y1="2.93324" x2="29.7898" y2="22.5358" gradientUnits="userSpaceOnUse">
<stop stop-color="#EA84BB"/>
<stop offset="1" stop-color="#432237"/>
</linearGradient>
<linearGradient id="paint2_linear_1269_8155" x1="44.2925" y1="10.18" x2="8.50632" y2="27.4211" gradientUnits="userSpaceOnUse">
<stop stop-color="#EA84BB"/>
<stop offset="1" stop-color="#432237"/>
</linearGradient>
<linearGradient id="paint3_linear_1269_8155" x1="63.8797" y1="14.8655" x2="39.3078" y2="34.4681" gradientUnits="userSpaceOnUse">
<stop stop-color="#EA84BB"/>
<stop offset="1" stop-color="#432237"/>
</linearGradient>
<linearGradient id="paint4_linear_1269_8155" x1="54.007" y1="30.349" x2="18.2266" y2="47.598" gradientUnits="userSpaceOnUse">
<stop stop-color="#EA84BB"/>
<stop offset="1" stop-color="#432237"/>
</linearGradient>
<linearGradient id="paint5_linear_1269_8155" x1="27.9367" y1="35.8065" x2="21.603" y2="34.8226" gradientUnits="userSpaceOnUse">
<stop stop-color="#EA84BB"/>
<stop offset="1" stop-color="#432237"/>
</linearGradient>
</defs>
</svg>
