<svg width="65" height="78" viewBox="0 0 65 78" fill="none" xmlns="http://www.w3.org/2000/svg">
<path d="M43.9436 77.7152C55.5727 77.7152 65 68.2879 65 56.6588C65 45.0297 55.5727 35.6024 43.9436 35.6024C32.3145 35.6024 22.8872 45.0297 22.8872 56.6588C22.8872 68.2879 32.3145 77.7152 43.9436 77.7152Z" fill="url(#paint0_radial_1036_7816)"/>
<path d="M36.1036 48.754C36.1036 48.754 40.3137 53.688 48.462 54.8291C49.1567 46.6253 45.3288 41.4071 45.3288 41.4071" fill="#EFEE98"/>
<path d="M36.1036 48.754C36.1036 48.754 40.3137 53.688 48.462 54.8291C49.1567 46.6253 45.3288 41.4071 45.3288 41.4071" stroke="#5B2783" stroke-width="0.727587" stroke-miterlimit="10"/>
<path d="M35.3111 28.7345L25.1365 36.8061L35.1977 49.4887L45.3723 41.4172L35.3111 28.7345Z" fill="#432237" stroke="#5B2783" stroke-width="0.727587" stroke-miterlimit="10"/>
<path d="M57.1029 40.26C57.1029 40.26 52.7737 31.872 44.4136 31.0886C36.0534 30.3053 32.2773 34.1429 32.2773 34.1429C34.5275 38.0206 38.1531 40.9108 42.4348 42.24C51.6636 45.1524 57.1029 40.26 57.1029 40.26Z" fill="url(#paint1_linear_1036_7816)" stroke="#5B2783" stroke-width="0.727587" stroke-miterlimit="10"/>
<path d="M62.8076 34.3307C62.8076 34.3307 55.633 24.2906 44.674 24.8383C33.7149 25.386 29.5583 31.0587 29.5583 31.0587C33.1953 35.6494 38.4262 38.7039 44.2116 39.6154C56.6899 41.6375 62.8076 34.3307 62.8076 34.3307Z" fill="url(#paint2_linear_1036_7816)" stroke="#5B2783" stroke-width="0.727587" stroke-miterlimit="10"/>
<path d="M62.808 34.3309L29.5668 31.0805" stroke="#5B2783" stroke-width="0.727587" stroke-miterlimit="10"/>
<path d="M32.2359 59.9859C32.2359 59.9859 25.0454 53.8637 26.1946 45.5477C27.3437 37.2317 31.9236 34.4041 31.9236 34.4041C35.1804 37.4805 37.1617 41.6689 37.4744 46.1381C38.2049 55.8013 32.2359 59.9859 32.2359 59.9859Z" fill="url(#paint3_linear_1036_7816)" stroke="#5B2783" stroke-width="0.727587" stroke-miterlimit="10"/>
<path d="M25.1598 64.1917C25.1598 64.1917 17.0176 54.9244 20.061 44.3798C23.1045 33.8353 29.5584 31.0809 29.5584 31.0809C33.1999 35.6687 34.9832 41.4581 34.5546 47.2997C33.6659 59.9016 25.1598 64.1917 25.1598 64.1917Z" fill="url(#paint4_linear_1036_7816)" stroke="#5B2783" stroke-width="0.727587" stroke-miterlimit="10"/>
<path d="M25.1607 64.1915L29.5667 31.0804" stroke="#5B2783" stroke-width="0.727587" stroke-miterlimit="10"/>
<path d="M26.6847 33.0121C26.6847 33.0121 20.0609 27.8001 24.4059 24.3627C28.9338 20.7581 32.5028 28.5057 32.5028 28.5057L26.6847 33.0121Z" fill="#432237" stroke="#5B2783" stroke-width="0.727587" stroke-miterlimit="10"/>
<path d="M22.9955 22.7354C22.9955 22.7354 21.897 28.7851 28.8706 30.241C28.856 30.2415 29.6902 23.9473 22.9955 22.7354Z" fill="url(#paint5_linear_1036_7816)" stroke="#5B2783" stroke-width="0.727587" stroke-miterlimit="10"/>
<path d="M27.3121 23.4422C27.3121 23.4422 19.5045 14.7299 27.1848 1.32648" stroke="#5B2783" stroke-width="0.727587" stroke-miterlimit="10"/>
<path d="M0.749209 21.7464C0.749209 21.7464 14.5407 16.3053 22.987 27.7889" stroke="#5B2783" stroke-width="0.727587" stroke-miterlimit="10"/>
<defs>
<radialGradient id="paint0_radial_1036_7816" cx="0" cy="0" r="1" gradientUnits="userSpaceOnUse" gradientTransform="translate(47.5572 52.5389) rotate(47.4) scale(18.91)">
<stop stop-color="#F5DD9F"/>
<stop offset="1" stop-color="#E38382" stop-opacity="0"/>
</radialGradient>
<linearGradient id="paint1_linear_1036_7816" x1="61.4085" y1="56.4987" x2="39.6806" y2="31.3239" gradientUnits="userSpaceOnUse">
<stop stop-color="#EA84BB"/>
<stop offset="1" stop-color="#432237"/>
</linearGradient>
<linearGradient id="paint2_linear_1036_7816" x1="53.3354" y1="46.1503" x2="33.6453" y2="9.0236" gradientUnits="userSpaceOnUse">
<stop stop-color="#EA84BB"/>
<stop offset="1" stop-color="#432237"/>
</linearGradient>
<linearGradient id="paint3_linear_1036_7816" x1="49.1837" y1="67.0495" x2="27.4557" y2="41.8746" gradientUnits="userSpaceOnUse">
<stop stop-color="#EA84BB"/>
<stop offset="1" stop-color="#432237"/>
</linearGradient>
<linearGradient id="paint4_linear_1036_7816" x1="32.4107" y1="57.2454" x2="12.7126" y2="20.1251" gradientUnits="userSpaceOnUse">
<stop stop-color="#EA84BB"/>
<stop offset="1" stop-color="#432237"/>
</linearGradient>
<linearGradient id="paint5_linear_1036_7816" x1="25.5754" y1="29.9082" x2="26.3566" y2="23.1722" gradientUnits="userSpaceOnUse">
<stop stop-color="#EA84BB"/>
<stop offset="1" stop-color="#432237"/>
</linearGradient>
</defs>
</svg>
