<svg width="258" height="252" viewBox="0 0 258 252" fill="none" xmlns="http://www.w3.org/2000/svg">
<path d="M106.52 94.2065C106.52 94.2065 225.649 244.088 223.547 250.692C221.444 257.296 91.3962 105.527 91.3962 105.527L106.52 94.2065Z" fill="#FAF594" stroke="#5B2684" stroke-miterlimit="10"/>
<path d="M67.9672 49.2021C67.9672 49.2021 86.8804 64.6024 88.2842 65.6121C89.688 66.6217 106.52 94.2066 106.52 94.2066C106.52 94.2066 106.278 100.167 102.371 103.349C98.4634 106.53 91.3822 105.527 91.3822 105.527L69.6752 83.0799L54.0537 63.088C54.0537 63.088 65.4224 57.6111 67.9672 49.2021Z" fill="#FAF594" stroke="#5B2684" stroke-miterlimit="10"/>
<path d="M47.0901 9.58491C47.0743 9.5801 47.0575 9.5801 47.0418 9.58491C45.4167 8.66518 43.7777 7.8561 42.1526 7.12308C42.1526 7.12308 42.1112 7.12308 42.0835 7.12308C41.7516 6.97786 41.3919 6.83265 41.0946 6.70126C41.072 6.68118 41.0463 6.66483 41.0185 6.65285C33.64 3.53408 26.4965 2.16486 21.0404 1.24513C18.588 0.830166 16.0754 0.943036 13.6702 1.57624C11.265 2.20945 9.02248 3.34843 7.09237 4.91712C5.44547 6.1924 3.96347 7.66742 2.68044 9.30828C2.23095 9.87533 1.87824 10.3801 1.60854 10.7812L1.4149 11.0855C1.26276 11.3275 1.14522 11.5074 1.08298 11.6249L1 11.7701C13.1293 14.1628 15.7986 16.8182 22.2022 22.8345C28.744 28.9545 30.4451 40.4338 33.066 48.5938C34.6842 53.6488 37.1045 58.372 42.1734 60.5019C46.2058 62.138 50.4879 63.0735 54.8352 63.268H55.4506C56.9216 62.9236 58.3624 62.4611 59.7589 61.8849C60.8415 61.4564 61.8968 60.9622 62.9191 60.405C69.8344 56.6846 77.7938 48.6491 69.4264 32.91C63.3341 21.3546 55.2778 14.1835 47.0901 9.58491Z" fill="#FFA79B" stroke="#5B2684" stroke-linecap="round" stroke-linejoin="round"/>
<path d="M91.8149 105.206L94.1623 105.665C96.5758 105.665 100.103 104.615 102.44 102.706C102.44 102.706 150.459 163.145 158.585 172.224C165.396 179.831 208.879 231.626 223.429 250.913C219.695 255.124 91.8149 105.206 91.8149 105.206Z" fill="url(#paint0_linear_1269_7270)"/>
<path d="M102.06 102.991C99.0613 105.24 91.815 105.206 91.815 105.206V105.206L69.4551 82.7807L54.9399 63.8637C57.7226 62.4597 63.8201 60.9702 66.19 58.9561C66.9953 59.228 65.4067 58.5406 66.1 59.0289C66.1 59.0289 70.8152 68.3114 73.8005 70.5699C76.7858 72.8283 84.0677 77.062 84.0677 77.062L102.44 102.706L102.06 102.991Z" fill="url(#paint1_linear_1269_7270)"/>
<path d="M47.0903 9.58491C47.0745 9.5801 47.0577 9.5801 47.0419 9.58491C45.4168 8.66518 43.7779 7.8561 42.1528 7.12308C42.1528 7.12308 42.1113 7.12308 42.0836 7.12308C41.7517 6.97786 41.3921 6.83265 41.0947 6.70127C41.0721 6.68118 41.0465 6.66483 41.0187 6.65285C33.6401 3.53408 26.4967 2.16486 21.0405 1.24513C18.5882 0.830166 16.0756 0.943036 13.6704 1.57624C11.2651 2.20945 9.02264 3.34843 7.09253 4.91712C11.4353 4.43997 15.8334 4.91713 18.7655 7.73855C26.5451 15.2001 44.5109 13.1117 44.3519 24.4112C44.1928 35.7107 53.3901 44.3202 56.7993 49.0364C59.3095 52.494 56.4881 59.6444 54.8008 63.2195H55.4163C56.8872 62.8752 58.3279 62.4127 59.7244 61.8365C60.807 61.408 61.8624 60.9138 62.8847 60.3566C69.7999 56.6362 77.7594 48.6007 69.3919 32.8616C63.3342 21.3546 55.2779 14.1835 47.0903 9.58491Z" fill="url(#paint2_linear_1269_7270)"/>
<path d="M1.08301 11.5692C5.68165 10.1862 10.9165 9.55692 15.605 11.023C21.1372 12.7656 25.9433 16.4514 29.7191 20.7804C33.8267 25.4827 34.9262 29.8877 36.4683 35.7726C37.4617 39.5112 38.733 43.1703 40.2717 46.7194C43.9714 55.3497 50.361 60.792 59.7865 61.8085" stroke="#5B2684" stroke-miterlimit="10"/>
<path d="M67.504 57.5558C67.504 57.5558 65.8513 31.4991 52.0139 20.414C38.1765 9.32883 26.0679 0.919894 1.60864 10.7326" stroke="#5B2684" stroke-miterlimit="10"/>
<path d="M62.9198 60.322C59.326 56.7292 56.2952 52.6143 53.93 48.1166C51.5512 43.6078 50.3825 38.7949 48.5154 34.1063C47.1916 30.6116 45.5188 27.2592 43.5225 24.1C37.8382 15.4282 26.0062 9.23218 15.6887 8.88642C10.6843 8.80869 5.71391 9.72052 1.06299 11.5695" stroke="#5B2684" stroke-miterlimit="10"/>
<path d="M230.194 235.206L224.035 234.031C222.504 233.739 221.197 232.75 220.499 231.356L218.909 228.175L157.13 213.937L70.9738 192.701L46.7584 185.757C41.233 184.173 36.1182 181.406 31.7682 177.648C27.4181 173.89 23.9369 169.232 21.5655 163.996L14.042 147.405L21.7677 121.518L36.3361 117.109C50.8473 112.712 66.1778 111.724 81.1332 114.224L102.194 117.736L192.529 132.567L241.607 141.466L243.455 139.773C244.117 139.167 245.014 138.889 245.902 139.015L256.809 140.556C256.809 140.556 258.097 156.58 249.212 186.499C238.702 221.899 230.194 235.206 230.194 235.206Z" fill="url(#paint3_linear_1269_7270)" stroke="#5B2783" stroke-width="0.858328" stroke-miterlimit="10"/>
<path d="M13.9528 156.279L26.2178 115.885C26.5509 114.788 25.9315 113.628 24.8342 113.295L16.6483 110.809C15.551 110.476 14.3914 111.096 14.0582 112.193L1.79322 152.587C1.46005 153.684 2.0795 154.844 3.17679 155.177L11.3627 157.663C12.46 157.996 13.6196 157.377 13.9528 156.279Z" fill="url(#paint4_linear_1269_7270)" stroke="#5B2783" stroke-width="0.858328" stroke-miterlimit="10"/>
<path d="M157.11 213.917L78.1541 194.461C91.9876 178.281 100.859 161.933 104.244 151.315C108.235 138.817 110.257 121.066 102.221 117.729L178.622 130.268C192.726 142.781 188.694 164.454 183.341 178.308C177.753 192.593 163.373 207.755 157.11 213.917Z" fill="url(#paint5_linear_1269_7270)" stroke="#5B2783" stroke-width="0.858328" stroke-miterlimit="10"/>
<path d="M24.842 120.581L18.2556 156.695L15.6399 150.91L24.842 120.581Z" fill="#5B2783"/>
<path d="M37.3893 121.295C48.5581 117.056 60.5578 115.467 72.445 116.65C91.8739 118.672 233.061 143.4 235.892 144.209C238.724 145.018 237.241 153.876 237.449 156.694C237.658 159.512 80.0696 129.176 73.8809 129.331C67.6922 129.486 48.3779 131.623 42.7421 132.155C37.1062 132.688 32.4275 127.106 37.3893 121.295Z" fill="url(#paint6_linear_1269_7270)"/>
<path d="M2.91235 149.09L15.0942 152.697" stroke="#5B2684" stroke-width="0.858328" stroke-linecap="round" stroke-linejoin="round"/>
<path d="M4.67871 143.272L17.0426 146.286" stroke="#5B2684" stroke-width="0.858328" stroke-linecap="round" stroke-linejoin="round"/>
<path d="M6.70874 136.565L18.9108 140.124" stroke="#5B2684" stroke-width="0.858328" stroke-linecap="round" stroke-linejoin="round"/>
<path d="M8.91333 129.311L20.6098 132.648" stroke="#5B2684" stroke-width="0.858328" stroke-linecap="round" stroke-linejoin="round"/>
<path d="M10.8608 122.906L23.1101 126.297" stroke="#5B2684" stroke-width="0.858328" stroke-linecap="round" stroke-linejoin="round"/>
<path d="M12.8091 116.468L24.8426 119.826" stroke="#5B2684" stroke-width="0.858328" stroke-linecap="round" stroke-linejoin="round"/>
<path d="M241.19 141.456L237.309 165.888C235.318 178.427 232.131 190.746 227.792 202.677L218.69 227.706" stroke="#502273"/>
<path d="M106.189 93.9558V93.9558C106.825 100.945 100.73 106.674 93.7936 105.606L91.1893 105.206" stroke="#5B2684"/>
<defs>
<linearGradient id="paint0_linear_1269_7270" x1="142.078" y1="148.146" x2="98.8577" y2="110.457" gradientUnits="userSpaceOnUse">
<stop stop-color="#F8E59A"/>
<stop offset="1" stop-color="#F5CFA2"/>
</linearGradient>
<linearGradient id="paint1_linear_1269_7270" x1="66.1" y1="98.0511" x2="94.1302" y2="75.3347" gradientUnits="userSpaceOnUse">
<stop stop-color="#EFA8AF"/>
<stop offset="1" stop-color="#FAF594"/>
</linearGradient>
<linearGradient id="paint2_linear_1269_7270" x1="76.3832" y1="37.5019" x2="25.2104" y2="0.851095" gradientUnits="userSpaceOnUse">
<stop stop-color="#FAA694"/>
<stop offset="1" stop-color="#FFCD9F"/>
</linearGradient>
<linearGradient id="paint3_linear_1269_7270" x1="257" y1="193" x2="2.00002" y2="131" gradientUnits="userSpaceOnUse">
<stop stop-color="#D8626F"/>
<stop offset="1" stop-color="#EA9F82"/>
</linearGradient>
<linearGradient id="paint4_linear_1269_7270" x1="21.3643" y1="112.478" x2="7.54429" y2="158.32" gradientUnits="userSpaceOnUse">
<stop stop-color="#D3616C"/>
<stop offset="1" stop-color="#E2917C"/>
</linearGradient>
<linearGradient id="paint5_linear_1269_7270" x1="-216383" y1="-360349" x2="-222530" y2="-345590" gradientUnits="userSpaceOnUse">
<stop stop-color="#CD426D"/>
<stop offset="1" stop-color="#9C367F"/>
</linearGradient>
<linearGradient id="paint6_linear_1269_7270" x1="101.925" y1="130.679" x2="58.7799" y2="122.589" gradientUnits="userSpaceOnUse">
<stop stop-color="#DA86A8" stop-opacity="0.26"/>
<stop offset="1" stop-color="#FFD3E5" stop-opacity="0"/>
</linearGradient>
</defs>
</svg>
