<svg width="1792" height="333" viewBox="0 0 1792 333" fill="none" xmlns="http://www.w3.org/2000/svg">
<path d="M231.023 47.6198C231.025 51.5275 232.578 55.2745 235.342 58.037C238.106 60.7995 241.854 62.3513 245.761 62.3513V62.3513C241.853 62.3513 238.104 63.9041 235.34 66.6682C232.576 69.4322 231.023 73.1811 231.023 77.0901" fill="url(#paint0_radial_342_122)"/>
<path d="M231.023 77.0901C231.023 73.1861 229.474 69.4416 226.716 66.6784C223.958 63.9151 220.217 62.3589 216.313 62.3513V62.3513C220.216 62.3456 223.958 60.791 226.716 58.0289C229.474 55.2668 231.023 51.5231 231.023 47.6198" fill="url(#paint1_radial_342_122)"/>
<path d="M151.494 246.987C151.503 250.033 152.717 252.952 154.87 255.106C157.023 257.261 159.941 258.477 162.988 258.488V258.488C159.939 258.488 157.016 259.699 154.86 261.855C152.705 264.01 151.494 266.934 151.494 269.982" fill="url(#paint2_radial_342_122)"/>
<path d="M151.494 269.982C151.494 266.934 150.283 264.01 148.127 261.855C145.972 259.699 143.048 258.488 140 258.488V258.488C143.046 258.477 145.964 257.261 148.117 255.106C150.271 252.952 151.484 250.033 151.494 246.987" fill="url(#paint3_radial_342_122)"/>
<path d="M535.41 269.531C535.41 272.59 536.625 275.525 538.789 277.689C540.953 279.852 543.887 281.068 546.947 281.068C543.887 281.068 540.953 282.283 538.789 284.447C536.625 286.611 535.41 289.545 535.41 292.605" fill="url(#paint4_radial_342_122)"/>
<path d="M535.41 292.605C535.41 289.545 534.195 286.611 532.031 284.447C529.867 282.283 526.933 281.068 523.873 281.068C526.933 281.068 529.867 279.852 532.031 277.689C534.195 275.525 535.41 272.59 535.41 269.531" fill="url(#paint5_radial_342_122)"/>
<path d="M498.268 7.427C498.268 9.98847 499.283 12.4454 501.092 14.2594C502.9 16.0733 505.354 17.0962 507.916 17.1038V17.1038C506.645 17.1029 505.387 17.3523 504.213 17.8378C503.039 18.3233 501.972 19.0354 501.073 19.9334C500.175 20.8314 499.462 21.8977 498.976 23.0714C498.489 24.245 498.239 25.503 498.239 26.7734" fill="url(#paint6_radial_342_122)"/>
<path d="M498.268 26.7734C498.268 24.2089 497.249 21.7494 495.436 19.936C493.622 18.1226 491.163 17.1038 488.598 17.1038C489.869 17.1038 491.127 16.8535 492.3 16.3671C493.474 15.8807 494.54 15.1678 495.438 14.2691C496.336 13.3704 497.048 12.3036 497.534 11.1296C498.02 9.95561 498.269 8.69744 498.268 7.427" fill="url(#paint7_radial_342_122)"/>
<path d="M1311.84 27.718C1311.84 32.8108 1313.86 37.6949 1317.47 41.296C1321.07 44.8972 1325.95 46.9202 1331.04 46.9202V46.9202C1325.95 46.9221 1321.07 48.9468 1317.47 52.5491C1313.86 56.1514 1311.84 61.0363 1311.84 66.1297" fill="url(#paint8_radial_342_122)"/>
<path d="M1311.84 66.1297C1311.84 61.0363 1309.82 56.1514 1306.22 52.5491C1302.62 48.9468 1297.73 46.9221 1292.64 46.9202C1295.16 46.9202 1297.66 46.4236 1299.99 45.4586C1302.32 44.4936 1304.43 43.0791 1306.22 41.296C1308 39.5129 1309.42 37.3961 1310.38 35.0664C1311.35 32.7367 1311.84 30.2397 1311.84 27.718" fill="url(#paint9_radial_342_122)"/>
<path d="M736.295 115.726C736.581 115.726 736.856 115.612 737.059 115.409C737.262 115.206 737.376 114.931 737.376 114.644C737.376 114.357 737.262 114.082 737.059 113.879C736.856 113.676 736.581 113.562 736.295 113.562C736.008 113.562 735.733 113.676 735.53 113.879C735.327 114.082 735.213 114.357 735.213 114.644C735.213 114.931 735.327 115.206 735.53 115.409C735.733 115.612 736.008 115.726 736.295 115.726Z" fill="#5B2684"/>
<path d="M1220.04 82.3685C1224.68 82.3685 1224.69 75.1577 1220.04 75.1577C1215.4 75.1577 1215.39 82.3685 1220.04 82.3685Z" fill="#D7D9E2"/>
<path d="M856.916 321.239C860.16 321.239 860.168 316.191 856.916 316.191C853.664 316.191 853.664 321.239 856.916 321.239Z" fill="#D7D9E2"/>
<path d="M1472.89 121.653C1476.14 121.653 1476.15 116.605 1472.89 116.605C1469.64 116.605 1469.64 121.653 1472.89 121.653Z" fill="#D7D9E2"/>
<path d="M328.202 5.04752C331.447 5.04752 331.454 0 328.202 0C324.95 0 324.943 5.04752 328.202 5.04752Z" fill="#D7D9E2"/>
<path d="M217.207 178.827C220.452 178.827 220.459 173.779 217.207 173.779C213.955 173.779 213.955 178.827 217.207 178.827Z" fill="#D7D9E2"/>
<path d="M386.559 221.514C389.811 221.514 389.811 216.467 386.559 216.467C383.307 216.467 383.307 221.514 386.559 221.514Z" fill="#D7D9E2"/>
<path d="M1206.06 332.43C1209.3 332.43 1209.31 327.382 1206.06 327.382C1202.81 327.382 1202.81 332.43 1206.06 332.43Z" fill="#D7D9E2"/>
<path d="M1425.4 322.84C1427.72 322.84 1427.72 319.235 1425.4 319.235C1423.08 319.235 1423.08 322.84 1425.4 322.84Z" fill="#D7D9E2"/>
<path d="M1396.65 142.232C1398.98 142.232 1398.98 138.626 1396.65 138.626C1394.33 138.626 1394.33 142.232 1396.65 142.232Z" fill="#D7D9E2"/>
<path d="M345.054 113C349.691 113 349.698 105.789 345.054 105.789C340.41 105.789 340.403 113 345.054 113Z" fill="#D7D9E2"/>
<path d="M1649.56 215.911C1652.81 215.911 1652.82 210.863 1649.56 210.863C1646.31 210.863 1646.31 215.911 1649.56 215.911Z" fill="#D7D9E2"/>
<path d="M1582.05 87.4836C1585.3 87.4836 1585.3 82.436 1582.05 82.436C1578.8 82.436 1578.8 87.4836 1582.05 87.4836Z" fill="#D7D9E2"/>
<path d="M1483.75 192.887C1487 192.887 1487 187.84 1483.75 187.84C1480.49 187.84 1480.49 192.887 1483.75 192.887Z" fill="#D7D9E2"/>
<defs>
<radialGradient id="paint0_radial_342_122" cx="0" cy="0" r="1" gradientUnits="userSpaceOnUse" gradientTransform="translate(232.068 62.0557) scale(16.6929)">
<stop stop-color="white"/>
<stop offset="1" stop-color="#F4E5B7" stop-opacity="0"/>
</radialGradient>
<radialGradient id="paint1_radial_342_122" cx="0" cy="0" r="1" gradientUnits="userSpaceOnUse" gradientTransform="translate(232.068 62.0557) scale(16.6929)">
<stop stop-color="white"/>
<stop offset="1" stop-color="#F4E5B7" stop-opacity="0"/>
</radialGradient>
<radialGradient id="paint2_radial_342_122" cx="0" cy="0" r="1" gradientUnits="userSpaceOnUse" gradientTransform="translate(152.287 258.257) scale(13.0226)">
<stop stop-color="white"/>
<stop offset="1" stop-color="#F4E5B7" stop-opacity="0"/>
</radialGradient>
<radialGradient id="paint3_radial_342_122" cx="0" cy="0" r="1" gradientUnits="userSpaceOnUse" gradientTransform="translate(152.287 258.257) scale(13.0226)">
<stop stop-color="white"/>
<stop offset="1" stop-color="#F4E5B7" stop-opacity="0"/>
</radialGradient>
<radialGradient id="paint4_radial_342_122" cx="0" cy="0" r="1" gradientUnits="userSpaceOnUse" gradientTransform="translate(536.21 280.815) scale(13.0515)">
<stop stop-color="white"/>
<stop offset="1" stop-color="#F4E5B7" stop-opacity="0"/>
</radialGradient>
<radialGradient id="paint5_radial_342_122" cx="0" cy="0" r="1" gradientUnits="userSpaceOnUse" gradientTransform="translate(536.211 280.815) scale(13.0515)">
<stop stop-color="white"/>
<stop offset="1" stop-color="#F4E5B7" stop-opacity="0"/>
</radialGradient>
<radialGradient id="paint6_radial_342_122" cx="0" cy="0" r="1" gradientUnits="userSpaceOnUse" gradientTransform="translate(498.938 16.9091) scale(10.9531)">
<stop stop-color="white"/>
<stop offset="1" stop-color="#F4E5B7" stop-opacity="0"/>
</radialGradient>
<radialGradient id="paint7_radial_342_122" cx="0" cy="0" r="1" gradientUnits="userSpaceOnUse" gradientTransform="translate(498.939 16.9091) scale(10.9531)">
<stop stop-color="white"/>
<stop offset="1" stop-color="#F4E5B7" stop-opacity="0"/>
</radialGradient>
<radialGradient id="paint8_radial_342_122" cx="0" cy="0" r="1" gradientUnits="userSpaceOnUse" gradientTransform="translate(1313.17 46.5381) scale(21.7476)">
<stop stop-color="white"/>
<stop offset="1" stop-color="#F4E5B7" stop-opacity="0"/>
</radialGradient>
<radialGradient id="paint9_radial_342_122" cx="0" cy="0" r="1" gradientUnits="userSpaceOnUse" gradientTransform="translate(1313.17 46.5381) scale(21.7476)">
<stop stop-color="white"/>
<stop offset="1" stop-color="#F4E5B7" stop-opacity="0"/>
</radialGradient>
</defs>
</svg>
